font.ufo
<glyph name="numbersign" format="1">
  <advance width="797"/>
  <unicode hex="0023"/>
  <outline>
    <contour>
      <point x="114" y="429" type="line"/>
      <point x="215" y="429" type="line"/>
      <point x="215" y="255" type="line"/>
      <point x="34" y="255" type="line"/>
      <point x="114" y="165" type="line"/>
      <point x="215" y="165" type="line"/>
      <point x="215" y="-1" type="line"/>
      <point x="330" y="-29" type="line"/>
      <point x="330" y="165" type="line"/>
      <point x="471" y="165" type="line"/>
      <point x="471" y="-1" type="line"/>
      <point x="586" y="-29" type="line"/>
      <point x="586" y="165" type="line"/>
      <point x="762" y="165" type="line"/>
      <point x="682" y="255" type="line"/>
      <point x="586" y="255" type="line"/>
      <point x="586" y="429" type="line"/>
      <point x="762" y="429" type="line"/>
      <point x="682" y="519" type="line"/>
      <point x="586" y="519" type="line"/>
      <point x="586" y="682" type="line"/>
      <point x="471" y="710" type="line"/>
      <point x="471" y="519" type="line"/>
      <point x="330" y="519" type="line"/>
      <point x="330" y="682" type="line"/>
      <point x="215" y="710" type="line"/>
      <point x="215" y="519" type="line"/>
      <point x="34" y="519" type="line"/>
    </contour>
    <contour>
      <point x="330" y="429" type="line"/>
      <point x="471" y="429" type="line"/>
      <point x="471" y="255" type="line"/>
      <point x="330" y="255" type="line"/>
    </contour>
  </outline>
</glyph>
<glyph name="dollar" format="1">
  <advance width="623"/>
  <unicode hex="0024"/>
  <outline>
    <contour>
      <point x="463" y="473" type="line"/>
      <point x="411" y="488"/>
      <point x="349" y="496"/>
      <point x="334" y="497" type="curve" smooth="yes"/>
      <point x="303" y="499"/>
      <point x="188" y="438"/>
      <point x="189" y="370" type="curve" smooth="yes"/>
      <point x="189" y="347"/>
      <point x="420" y="393"/>
      <point x="454" y="372" type="curve" smooth="yes"/>
      <point x="610" y="273"/>
      <point x="537" y="86"/>
      <point x="370" y="71" type="curve"/>
      <point x="372" y="-88" type="line"/>
      <point x="282" y="-59" type="line"/>
      <point x="282" y="75" type="line"/>
      <point x="219" y="86"/>
      <point x="176" y="118"/>
      <point x="76" y="191" type="curve"/>
      <point x="96" y="221" type="line"/>
      <point x="226" y="142"/>
      <point x="468" y="94"/>
      <point x="470" y="301" type="curve" smooth="yes"/>
      <point x="470" y="321"/>
      <point x="256" y="248"/>
      <point x="205" y="286" type="curve" smooth="yes"/>
      <point x="169" y="313"/>
      <point x="116" y="359"/>
      <point x="108" y="394" type="curve" smooth="yes"/>
      <point x="84" y="502"/>
      <point x="199" y="568"/>
      <point x="282" y="578" type="curve"/>
      <point x="282" y="724" type="line"/>
      <point x="370" y="683" type="line"/>
      <point x="371" y="558" type="line"/>
      <point x="405" y="543"/>
      <point x="444" y="522"/>
      <point x="479" y="505" type="curve"/>
    </contour>
  </outline>
</glyph>
<glyph name="percent" format="1">
  <advance width="855"/>
  <unicode hex="0025"/>
  <outline>
    <contour>
      <point x="713" y="682" type="line"/>
      <point x="621" y="715" type="line"/>
      <point x="543" y="645"/>
      <point x="405" y="618"/>
      <point x="237" y="690" type="curve"/>
      <point x="218" y="700" type="line" smooth="yes"/>
      <point x="88" y="765"/>
      <point x="-81" y="536"/>
      <point x="69" y="414" type="curve" smooth="yes"/>
      <point x="90" y="397"/>
      <point x="105" y="384"/>
      <point x="149" y="362" type="curve" smooth="yes"/>
      <point x="313" y="280"/>
      <point x="437" y="515"/>
      <point x="341" y="618" type="curve"/>
      <point x="407" y="592"/>
      <point x="473" y="579"/>
      <point x="547" y="597" type="curve"/>
      <point x="173" y="1" type="line"/>
      <point x="263" y="-30" type="line"/>
    </contour>
    <contour>
      <point x="800" y="257" type="curve" smooth="yes"/>
      <point x="765" y="286"/>
      <point x="736" y="303"/>
      <point x="687" y="328" type="curve" smooth="yes"/>
      <point x="557" y="393"/>
      <point x="388" y="164"/>
      <point x="538" y="42" type="curve" smooth="yes"/>
      <point x="559" y="25"/>
      <point x="574" y="12"/>
      <point x="618" y="-10" type="curve" smooth="yes"/>
      <point x="788" y="-95"/>
      <point x="915" y="160"/>
    </contour>
    <contour>
      <point x="717" y="256" type="curve" smooth="yes"/>
      <point x="813" y="194"/>
      <point x="711" y="-12"/>
      <point x="611" y="47" type="curve" smooth="yes"/>
      <point x="511" y="105"/>
      <point x="623" y="318"/>
    </contour>
    <contour>
      <point x="248" y="628" type="curve" smooth="yes"/>
      <point x="344" y="566"/>
      <point x="242" y="360"/>
      <point x="142" y="419" type="curve" smooth="yes"/>
      <point x="42" y="477"/>
      <point x="154" y="690"/>
    </contour>
  </outline>
</glyph>
<glyph name="asterisk" format="1">
  <advance width="375"/>
  <unicode hex="002A"/>
  <outline>
    <contour>
      <point x="346" y="493" type="line"/>
      <point x="379" y="533" type="line"/>
      <point x="121" y="698" type="line"/>
      <point x="95" y="673" type="line"/>
    </contour>
    <contour>
      <point x="82" y="547" type="line"/>
      <point x="152" y="489" type="line"/>
      <point x="379" y="655" type="line"/>
      <point x="312" y="710" type="line"/>
    </contour>
    <contour>
      <point x="253" y="745" type="line"/>
      <point x="202" y="753" type="line"/>
      <point x="209" y="448" type="line"/>
      <point x="255" y="436" type="line"/>
    </contour>
  </outline>
</glyph>
<glyph name="plus" format="1">
  <advance width="600"/>
  <unicode hex="002B"/>
  <outline>
    <contour>
      <point x="348" y="542" type="line"/>
      <point x="233" y="570" type="line"/>
      <point x="233" y="358" type="line"/>
      <point x="34" y="358" type="line"/>
      <point x="64" y="285" type="line"/>
      <point x="233" y="285" type="line"/>
      <point x="233" y="91" type="line"/>
      <point x="348" y="63" type="line"/>
      <point x="348" y="285" type="line"/>
      <point x="537" y="285" type="line"/>
      <point x="507" y="358" type="line"/>
      <point x="348" y="358" type="line"/>
    </contour>
  </outline>
</glyph>
<glyph name="hyphen" format="1">
  <advance width="531"/>
  <unicode hex="002D"/>
  <outline>
    <contour>
      <point x="64" y="285" type="line"/>
      <point x="487" y="285" type="line"/>
      <point x="457" y="358" type="line"/>
      <point x="34" y="358" type="line"/>
    </contour>
  </outline>
</glyph>
<glyph name="slash" format="1">
  <advance width="282"/>
  <unicode hex="002F"/>
  <outline>
    <contour>
      <point x="160" y="-29" type="line"/>
      <point x="30" y="0" type="line"/>
      <point x="298" y="714" type="line"/>
      <point x="426" y="673" type="line"/>
    </contour>
  </outline>
</glyph>
<glyph name="one" format="1">
  <advance width="499"/>
  <unicode hex="0031"/>
  <outline>
    <contour>
      <point x="432" y="625" type="line"/>
      <point x="304" y="666" type="line"/>
      <point x="304" y="0" type="line"/>
      <point x="434" y="-29" type="line"/>
    </contour>
    <contour>
      <point x="432" y="625" type="line"/>
      <point x="304" y="667" type="line"/>
      <point x="65" y="439" type="line"/>
      <point x="189" y="394" type="line"/>
    </contour>
  </outline>
</glyph>
<glyph name="two" format="1">
  <advance width="614"/>
  <unicode hex="0032"/>
  <outline>
    <contour>
      <point x="120" y="0" type="line"/>
      <point x="594" y="0" type="line"/>
      <point x="514" y="90" type="line"/>
      <point x="220" y="90" type="line"/>
      <point x="400" y="249" type="line"/>
      <point x="461" y="310"/>
      <point x="569" y="409"/>
      <point x="496" y="489" type="curve" smooth="yes"/>
      <point x="441" y="548"/>
      <point x="383" y="603"/>
      <point x="326" y="651" type="curve" smooth="yes"/>
      <point x="255" y="710"/>
      <point x="112" y="609"/>
      <point x="76" y="585" type="curve"/>
      <point x="154" y="489" type="line"/>
      <point x="199" y="520"/>
      <point x="305" y="622"/>
      <point x="382" y="528" type="curve" smooth="yes"/>
      <point x="441" y="456"/>
      <point x="380" y="393"/>
      <point x="280" y="300" type="curve"/>
      <point x="40" y="90" type="line"/>
    </contour>
  </outline>
</glyph>
<glyph name="three" format="1">
  <advance width="568"/>
  <unicode hex="0033"/>
  <outline>
    <contour>
      <point x="469" y="489" type="curve" smooth="yes"/>
      <point x="515" y="432"/>
      <point x="476" y="364"/>
      <point x="397" y="320" type="curve"/>
      <point x="434" y="290"/>
      <point x="474" y="261"/>
      <point x="498" y="236" type="curve" smooth="yes"/>
      <point x="592" y="138"/>
      <point x="315" y="-137"/>
      <point x="166" y="20" type="curve" smooth="yes"/>
      <point x="127" y="61"/>
      <point x="103" y="90"/>
      <point x="53" y="160" type="curve"/>
      <point x="84" y="187" type="line"/>
      <point x="240" y="-50"/>
      <point x="500" y="171"/>
      <point x="356" y="301" type="curve"/>
      <point x="317" y="285"/>
      <point x="272" y="275"/>
      <point x="225" y="273" type="curve"/>
      <point x="169" y="370" type="line"/>
      <point x="307" y="386"/>
      <point x="425" y="438"/>
      <point x="367" y="536" type="curve" smooth="yes"/>
      <point x="312" y="628"/>
      <point x="222" y="549"/>
      <point x="144" y="503" type="curve"/>
      <point x="71" y="594" type="line"/>
      <point x="123" y="625"/>
      <point x="249" y="708"/>
      <point x="322" y="646" type="curve" smooth="yes"/>
      <point x="381" y="595"/>
      <point x="418" y="551"/>
    </contour>
  </outline>
</glyph>
<glyph name="nine" format="1">
  <advance width="538"/>
  <unicode hex="0039"/>
  <outline>
    <contour>
      <point x="92" y="61" type="line"/>
      <point x="360" y="173"/>
      <point x="418" y="498"/>
      <point x="335" y="555" type="curve" smooth="yes"/>
      <point x="208" y="642"/>
      <point x="-57" y="239"/>
      <point x="365" y="375" type="curve"/>
      <point x="348" y="272" type="line"/>
      <point x="326" y="265"/>
      <point x="219" y="246"/>
      <point x="194" y="265" type="curve" smooth="yes"/>
      <point x="129" y="315"/>
      <point x="80" y="352"/>
      <point x="57" y="382" type="curve" smooth="yes"/>
      <point x="-36" y="503"/>
      <point x="167" y="710"/>
      <point x="267" y="662" type="curve" smooth="yes"/>
      <point x="342" y="626"/>
      <point x="418" y="572"/>
      <point x="469" y="517" type="curve" smooth="yes"/>
      <point x="543" y="438"/>
      <point x="473" y="108"/>
      <point x="198" y="-28" type="curve"/>
    </contour>
  </outline>
</glyph>
<glyph name="less" format="1">
  <advance width="499"/>
  <unicode hex="003C"/>
  <outline>
    <contour>
      <point x="421" y="139" type="line"/>
      <point x="366" y="75" type="line"/>
      <point x="43" y="341" type="line"/>
      <point x="362" y="582" type="line"/>
      <point x="459" y="520" type="line"/>
      <point x="194" y="316" type="line"/>
    </contour>
  </outline>
</glyph>
<glyph name="A" format="1">
  <advance width="607"/>
  <unicode hex="0041"/>
  <outline>
    <contour>
      <point x="328" y="743" type="move" name="top"/>
    </contour>
    <contour>
      <point x="393" y="8" type="move" name="ogonek"/>
    </contour>
    <contour>
      <point x="458" y="0" type="line"/>
      <point x="577" y="-29" type="line"/>
      <point x="379" y="622" type="line"/>
      <point x="380" y="625" type="line"/>
      <point x="252" y="666" type="line"/>
      <point x="40" y="0" type="line"/>
      <point x="170" y="-29" type="line"/>
      <point x="226" y="145" type="line"/>
      <point x="419" y="145" type="line"/>
    </contour>
    <contour>
      <point x="332" y="475" type="line"/>
      <point x="397" y="230" type="line"/>
      <point x="253" y="230" type="line"/>
    </contour>
  </outline>
</glyph>
<glyph name="B" format="1">
  <advance width="709"/>
  <unicode hex="0042"/>
  <outline>
    <contour>
      <point x="215" y="1" type="line"/>
      <point x="599" y="-90"/>
      <point x="714" y="161"/>
      <point x="659" y="226" type="curve" smooth="yes"/>
      <point x="629" y="260"/>
      <point x="577" y="302"/>
      <point x="527" y="331" type="curve"/>
      <point x="606" y="391"/>
      <point x="624" y="488"/>
      <point x="595" y="523" type="curve" smooth="yes"/>
      <point x="560" y="564"/>
      <point x="474" y="649"/>
      <point x="429" y="678" type="curve" smooth="yes"/>
      <point x="393" y="701"/>
      <point x="199" y="700"/>
      <point x="85" y="669" type="curve"/>
      <point x="85" y="666" type="line"/>
      <point x="85" y="30" type="line"/>
    </contour>
    <contour>
      <point x="215" y="52" type="curve"/>
      <point x="214" y="304" type="line"/>
      <point x="328" y="268"/>
      <point x="415" y="275"/>
      <point x="478" y="302" type="curve"/>
      <point x="594" y="227"/>
      <point x="510" y="4"/>
    </contour>
    <contour>
      <point x="471" y="575" type="curve" smooth="yes"/>
      <point x="506" y="536"/>
      <point x="481" y="323"/>
      <point x="214" y="349" type="curve"/>
      <point x="213" y="581" type="line"/>
      <point x="310" y="611"/>
      <point x="431" y="618"/>
    </contour>
  </outline>
</glyph>
<glyph name="C" format="1">
  <advance width="706"/>
  <unicode hex="0043"/>
  <outline>
    <contour>
      <point x="418" y="743" type="move" name="top"/>
    </contour>
    <contour>
      <point x="188" y="8" type="move" name="cedilla"/>
    </contour>
    <contour>
      <point x="634" y="527" type="curve"/>
      <point x="634" y="527"/>
      <point x="683" y="580"/>
      <point x="683" y="581" type="curve"/>
      <point x="614" y="616"/>
      <point x="572" y="636"/>
      <point x="447" y="693" type="curve" smooth="yes"/>
      <point x="222" y="796"/>
      <point x="-112" y="379"/>
      <point x="141" y="146" type="curve" smooth="yes"/>
      <point x="209" y="84"/>
      <point x="251" y="52"/>
      <point x="331" y="5" type="curve" smooth="yes"/>
      <point x="451" y="-66"/>
      <point x="606" y="-6"/>
      <point x="705" y="78" type="curve"/>
      <point x="584" y="167" type="line"/>
      <point x="505" y="107"/>
      <point x="396" y="39"/>
      <point x="295" y="106" type="curve" smooth="yes"/>
      <point x="56" y="264"/>
      <point x="312" y="667"/>
      <point x="488" y="598" type="curve" smooth="yes"/>
      <point x="561" y="569"/>
      <point x="604" y="543"/>
    </contour>
  </outline>
</glyph>
<glyph name="D" format="1">
  <advance width="766"/>
  <unicode hex="0044"/>
  <outline>
    <contour>
      <point x="375" y="683" type="move" name="top"/>
    </contour>
    <contour>
      <point x="210" y="1" type="line"/>
      <point x="70" y="30" type="line"/>
      <point x="70" y="666" type="line"/>
      <point x="208" y="625" type="line"/>
    </contour>
    <contour>
      <point x="210" y="1" type="curve"/>
      <point x="210" y="1"/>
      <point x="155" y="30"/>
      <point x="200" y="63" type="curve"/>
      <point x="492" y="14"/>
      <point x="669" y="375"/>
      <point x="512" y="506" type="curve" smooth="yes"/>
      <point x="385" y="612"/>
      <point x="238" y="558"/>
      <point x="134" y="556" type="curve"/>
      <point x="135" y="555"/>
      <point x="71" y="666"/>
      <point x="71" y="666" type="curve"/>
      <point x="120" y="682"/>
      <point x="377" y="694"/>
      <point x="422" y="663" type="curve" smooth="yes"/>
      <point x="514" y="599"/>
      <point x="615" y="489"/>
      <point x="697" y="395" type="curve" smooth="yes"/>
      <point x="729" y="359"/>
      <point x="747" y="93"/>
      <point x="516" y="4" type="curve" smooth="yes"/>
      <point x="442" y="-25"/>
      <point x="306" y="-21"/>
    </contour>
  </outline>
</glyph>
<glyph name="G" format="1">
  <advance width="853"/>
  <unicode hex="0047"/>
  <outline>
    <contour>
      <point x="452" y="723" type="move" name="top"/>
    </contour>
    <contour>
      <point x="646" y="531" type="curve"/>
      <point x="646" y="531"/>
      <point x="692" y="580"/>
      <point x="692" y="581" type="curve"/>
      <point x="623" y="616"/>
      <point x="581" y="636"/>
      <point x="456" y="693" type="curve" smooth="yes"/>
      <point x="231" y="796"/>
      <point x="-119" y="385"/>
      <point x="169" y="120" type="curve" smooth="yes"/>
      <point x="202" y="90"/>
      <point x="262" y="55"/>
      <point x="340" y="5" type="curve" smooth="yes"/>
      <point x="484" y="-87"/>
      <point x="603" y="55"/>
      <point x="702" y="139" type="curve"/>
      <point x="620" y="252" type="line"/>
      <point x="551" y="176"/>
      <point x="435" y="31"/>
      <point x="308" y="103" type="curve" smooth="yes"/>
      <point x="50" y="249"/>
      <point x="313" y="704"/>
      <point x="506" y="609" type="curve" smooth="yes"/>
      <point x="577" y="574"/>
      <point x="617" y="549"/>
    </contour>
    <contour>
      <point x="613" y="338" type="line"/>
      <point x="632" y="30" type="line" smooth="yes"/>
      <point x="639" y="-76"/>
      <point x="735" y="-136"/>
      <point x="828" y="-111" type="curve"/>
      <point x="758" y="-91"/>
      <point x="743" y="-56"/>
      <point x="743" y="47" type="curve" smooth="yes"/>
      <point x="743" y="76"/>
      <point x="741" y="297"/>
      <point x="741" y="297" type="curve"/>
    </contour>
    <contour>
      <point x="460" y="248" type="line"/>
      <point x="693" y="248" type="line"/>
      <point x="613" y="338" type="line"/>
      <point x="380" y="338" type="line"/>
    </contour>
  </outline>
</glyph>
<glyph name="H" format="1">
  <advance width="742"/>
  <unicode hex="0048"/>
  <outline>
    <contour>
      <point x="210" y="-29" type="line"/>
      <point x="70" y="0" type="line"/>
      <point x="70" y="666" type="line"/>
      <point x="208" y="626" type="line"/>
      <point x="209" y="346" type="line"/>
      <point x="532" y="364" type="line"/>
      <point x="532" y="666" type="line"/>
      <point x="672" y="626" type="line"/>
      <point x="672" y="-29" type="line"/>
      <point x="532" y="0" type="line"/>
      <point x="532" y="279" type="line"/>
      <point x="209" y="261" type="line"/>
    </contour>
  </outline>
</glyph>
<glyph name="I" format="1">
  <advance width="219"/>
  <unicode hex="0049"/>
  <outline>
    <contour>
      <point x="234" y="743" type="move" name="top"/>
    </contour>
    <contour>
      <point x="77" y="8" type="move" name="ogonek"/>
    </contour>
    <contour>
      <point x="173" y="625" type="line"/>
      <point x="45" y="666" type="line"/>
      <point x="45" y="0" type="line"/>
      <point x="175" y="-29" type="line"/>
    </contour>
  </outline>
</glyph>
<glyph name="L" format="1">
  <advance width="622"/>
  <unicode hex="004C"/>
  <outline>
    <contour>
      <point x="338" y="743" type="move" name="top"/>
    </contour>
    <contour>
      <point x="215" y="0" type="line"/>
      <point x="85" y="29" type="line"/>
      <point x="85" y="667" type="line"/>
      <point x="213" y="626" type="line"/>
      <point x="214" y="90" type="line"/>
      <point x="532" y="90" type="line"/>
      <point x="612" y="0" type="line"/>
    </contour>
  </outline>
</glyph>
<glyph name="M" format="1">
  <advance width="892"/>
  <unicode hex="004D"/>
  <outline>
    <contour>
      <point x="204" y="626" type="line"/>
      <point x="76" y="666" type="line"/>
      <point x="76" y="0" type="line"/>
      <point x="206" y="-29" type="line"/>
    </contour>
    <contour>
      <point x="795" y="626" type="line"/>
      <point x="665" y="666" type="line"/>
      <point x="368" y="110" type="line"/>
      <point x="498" y="81" type="line"/>
    </contour>
    <contour>
      <point x="368" y="110" type="line"/>
      <point x="450" y="196" type="line"/>
      <point x="204" y="626" type="line"/>
      <point x="105" y="599" type="line"/>
    </contour>
    <contour>
      <point x="795" y="626" type="line"/>
      <point x="667" y="666" type="line"/>
      <point x="667" y="0" type="line"/>
      <point x="797" y="-29" type="line"/>
    </contour>
  </outline>
</glyph>
<glyph name="N" format="1">
  <advance width="631"/>
  <unicode hex="004E"/>
  <outline>
    <contour>
      <point x="381" y="743" type="move" name="top"/>
    </contour>
    <contour>
      <point x="587" y="626" type="line"/>
      <point x="457" y="666" type="line"/>
      <point x="457" y="178" type="line"/>
      <point x="173" y="626" type="line"/>
      <point x="45" y="666" type="line"/>
      <point x="45" y="0" type="line"/>
      <point x="175" y="-29" type="line"/>
      <point x="173" y="443" type="line"/>
      <point x="457" y="0" type="line"/>
      <point x="587" y="-29" type="line"/>
    </contour>
  </outline>
</glyph>
<glyph name="P" format="1">
  <advance width="664"/>
  <unicode hex="0050"/>
  <outline>
    <contour>
      <point x="613" y="506" type="curve" smooth="yes"/>
      <point x="578" y="547"/>
      <point x="467" y="657"/>
      <point x="430" y="690" type="curve" smooth="yes"/>
      <point x="399" y="719"/>
      <point x="199" y="700"/>
      <point x="85" y="669" type="curve"/>
      <point x="85" y="0" type="line"/>
      <point x="215" y="-29" type="line"/>
      <point x="214" y="237" type="line"/>
      <point x="529" y="130"/>
      <point x="664" y="445"/>
    </contour>
    <contour>
      <point x="473" y="578" type="curve" smooth="yes"/>
      <point x="542" y="506"/>
      <point x="480" y="243"/>
      <point x="214" y="281" type="curve"/>
      <point x="213" y="597" type="line"/>
      <point x="302" y="614"/>
      <point x="422" y="630"/>
    </contour>
  </outline>
</glyph>
<glyph name="Q" format="1">
  <advance width="659"/>
  <unicode hex="0051"/>
  <outline>
    <contour>
      <point x="610" y="537" type="curve" smooth="yes"/>
      <point x="810" y="376"/>
      <point x="658" y="-36"/>
      <point x="413" y="-27" type="curve"/>
      <point x="444" y="-45"/>
      <point x="471" y="-61"/>
      <point x="486" y="-72" type="curve" smooth="yes"/>
      <point x="566" y="-130"/>
      <point x="546" y="-254"/>
      <point x="497" y="-300" type="curve"/>
      <point x="386" y="-217" type="line"/>
      <point x="421" y="-200"/>
      <point x="468" y="-140"/>
      <point x="391" y="-76" type="curve" smooth="yes"/>
      <point x="327" y="-23"/>
      <point x="187" y="77"/>
      <point x="160" y="100" type="curve" smooth="yes"/>
      <point x="138" y="118" type="line" smooth="yes"/>
      <point x="-159" y="355"/>
      <point x="172" y="820"/>
      <point x="397" y="686" type="curve" smooth="yes"/>
      <point x="499" y="625"/>
      <point x="544" y="590"/>
    </contour>
    <contour>
      <point x="479" y="554" type="curve" smooth="yes"/>
      <point x="265" y="727"/>
      <point x="30" y="283"/>
      <point x="253" y="116" type="curve" smooth="yes"/>
      <point x="469" y="-46"/>
      <point x="686" y="387"/>
    </contour>
  </outline>
</glyph>
<glyph name="T" format="1">
  <advance width="544"/>
  <unicode hex="0054"/>
  <outline>
    <contour>
      <point x="365" y="743" type="move" name="top"/>
    </contour>
    <contour>
      <point x="193" y="0" type="move" name="cedilla"/>
    </contour>
  </outline>
</glyph>
<glyph name="V" format="1">
  <advance width="692"/>
  <unicode hex="0056"/>
  <outline>
    <contour>
      <point x="149" y="637" type="line"/>
      <point x="30" y="666" type="line"/>
      <point x="298" y="14" type="line"/>
      <point x="297" y="12" type="line"/>
      <point x="425" y="-29" type="line"/>
      <point x="667" y="637" type="line"/>
      <point x="537" y="666" type="line"/>
      <point x="341" y="133" type="line"/>
    </contour>
  </outline>
</glyph>
<glyph name="X" format="1">
  <advance width="724"/>
  <unicode hex="0058"/>
  <outline>
    <contour>
      <point x="72" y="0" type="line"/>
      <point x="201" y="-29" type="line"/>
      <point x="371" y="229" type="line"/>
      <point x="522" y="0" type="line"/>
      <point x="652" y="-29" type="line"/>
      <point x="425" y="312" type="line"/>
      <point x="639" y="637" type="line"/>
      <point x="509" y="666" type="line"/>
      <point x="350" y="424" type="line"/>
      <point x="209" y="638" type="line"/>
      <point x="84" y="667" type="line"/>
      <point x="297" y="343" type="line"/>
    </contour>
  </outline>
</glyph>
<glyph name="Y" format="1">
  <advance width="591"/>
  <unicode hex="0059"/>
  <outline>
    <contour>
      <point x="328" y="743" type="move" name="top"/>
    </contour>
    <contour>
      <point x="386" y="-29" type="line"/>
      <point x="246" y="0" type="line"/>
      <point x="246" y="295" type="line"/>
      <point x="384" y="254" type="line"/>
    </contour>
    <contour>
      <point x="461" y="666" type="line"/>
      <point x="600" y="637" type="line"/>
      <point x="384" y="244" type="line"/>
      <point x="246" y="273" type="line"/>
    </contour>
    <contour>
      <point x="375" y="246" type="line"/>
      <point x="246" y="275" type="line"/>
      <point x="0" y="667" type="line"/>
      <point x="125" y="638" type="line"/>
    </contour>
  </outline>
</glyph>
<glyph name="Z" format="1">
  <advance width="835"/>
  <unicode hex="005A"/>
  <outline>
    <contour>
      <point x="460" y="743" type="move" name="top"/>
    </contour>
    <contour>
      <point x="162" y="577" type="line"/>
      <point x="558" y="577" type="line"/>
      <point x="82" y="90" type="line"/>
      <point x="81" y="89" type="line"/>
      <point x="83" y="88" type="line"/>
      <point x="162" y="0" type="line"/>
      <point x="778" y="0" type="line"/>
      <point x="698" y="90" type="line"/>
      <point x="267" y="90" type="line"/>
      <point x="752" y="577" type="line"/>
      <point x="672" y="667" type="line"/>
      <point x="82" y="667" type="line"/>
    </contour>
  </outline>
</glyph>
<glyph name="a" format="1">
  <advance width="556"/>
  <unicode hex="0061"/>
  <outline>
    <contour>
      <point x="418" y="507" type="move" name="top"/>
    </contour>
    <contour>
      <point x="388" y="7" type="move" name="ogonek"/>
    </contour>
    <contour>
      <point x="52" y="442" type="line"/>
      <point x="136" y="463"/>
      <point x="283" y="493"/>
      <point x="315" y="491" type="curve" smooth="yes"/>
      <point x="347" y="489"/>
      <point x="467" y="364"/>
      <point x="492" y="327" type="curve" smooth="yes"/>
      <point x="510" y="300"/>
      <point x="492" y="56"/>
      <point x="496" y="-29" type="curve"/>
      <point x="372" y="0" type="line"/>
      <point x="373" y="51" type="line"/>
      <point x="338" y="17"/>
      <point x="283" y="-30"/>
      <point x="241" y="-30" type="curve" smooth="yes"/>
      <point x="172" y="-29"/>
      <point x="45" y="144"/>
      <point x="45" y="190" type="curve" smooth="yes"/>
      <point x="46" y="279"/>
      <point x="314" y="316"/>
      <point x="377" y="321" type="curve"/>
      <point x="378" y="348" type="line" smooth="yes"/>
      <point x="380" y="435"/>
      <point x="259" y="397"/>
      <point x="106" y="351" type="curve"/>
    </contour>
    <contour>
      <point x="156" y="100" type="curve" smooth="yes"/>
      <point x="171" y="76"/>
      <point x="246" y="61"/>
      <point x="375" y="157" type="curve"/>
      <point x="376" y="245" type="line"/>
      <point x="312" y="227"/>
      <point x="112" y="168"/>
    </contour>
  </outline>
</glyph>
<glyph name="b" format="1">
  <advance width="591"/>
  <unicode hex="0062"/>
  <outline>
    <contour>
      <point x="165" y="681" type="line"/>
      <point x="50" y="709" type="line"/>
      <point x="50" y="52" type="line"/>
      <point x="113" y="14"/>
      <point x="194" y="-14"/>
      <point x="271" y="-29" type="curve" smooth="yes"/>
      <point x="459" y="-66"/>
      <point x="650" y="228"/>
      <point x="488" y="376" type="curve" smooth="yes"/>
      <point x="443" y="418"/>
      <point x="384" y="458"/>
      <point x="349" y="472" type="curve" smooth="yes"/>
      <point x="278" y="500"/>
      <point x="232" y="488"/>
      <point x="165" y="428" type="curve"/>
    </contour>
    <contour>
      <point x="165" y="248" type="line"/>
      <point x="249" y="407"/>
      <point x="357" y="413"/>
      <point x="398" y="385" type="curve" smooth="yes"/>
      <point x="509" y="309"/>
      <point x="367" y="-23"/>
      <point x="165" y="42" type="curve"/>
    </contour>
  </outline>
</glyph>
<glyph name="c" format="1">
  <advance width="567"/>
  <unicode hex="0063"/>
  <outline>
    <contour>
      <point x="279" y="507" type="move" name="top"/>
    </contour>
    <contour>
      <point x="164" y="7" type="move" name="cedilla"/>
    </contour>
    <contour>
      <point x="452" y="336" type="line"/>
      <point x="397" y="369"/>
      <point x="347" y="396"/>
      <point x="323" y="395" type="curve" smooth="yes"/>
      <point x="218" y="391"/>
      <point x="114" y="155"/>
      <point x="220" y="79" type="curve" smooth="yes"/>
      <point x="293" y="26"/>
      <point x="392" y="86"/>
      <point x="437" y="160" type="curve" smooth="yes"/>
      <point x="438" y="161"/>
      <point x="527" y="97"/>
      <point x="527" y="97" type="curve"/>
      <point x="416" y="-46"/>
      <point x="287" y="-55"/>
      <point x="194" y="7" type="curve" smooth="yes"/>
      <point x="-44" y="166"/>
      <point x="82" y="489"/>
      <point x="297" y="489" type="curve" smooth="yes"/>
      <point x="314" y="489"/>
      <point x="396" y="456"/>
      <point x="505" y="405" type="curve"/>
    </contour>
  </outline>
</glyph>
<glyph name="d" format="1">
  <advance width="597"/>
  <unicode hex="0064"/>
  <outline>
    <contour>
      <point x="414" y="710" type="line"/>
      <point x="414" y="425" type="line"/>
      <point x="377" y="449"/>
      <point x="338" y="473"/>
      <point x="300" y="485" type="curve" smooth="yes"/>
      <point x="166" y="527"/>
      <point x="-104" y="167"/>
      <point x="182" y="11" type="curve" smooth="yes"/>
      <point x="315" y="-62"/>
      <point x="424" y="-21"/>
      <point x="529" y="1" type="curve"/>
      <point x="535" y="7"/>
      <point x="529" y="682"/>
      <point x="529" y="682" type="curve"/>
    </contour>
    <contour>
      <point x="208" y="67" type="curve" smooth="yes"/>
      <point x="108" y="131"/>
      <point x="204" y="395"/>
      <point x="333" y="391" type="curve" smooth="yes"/>
      <point x="361" y="390"/>
      <point x="384" y="378"/>
      <point x="414" y="360" type="curve"/>
      <point x="414" y="90" type="line"/>
      <point x="344" y="49"/>
      <point x="257" y="36"/>
    </contour>
  </outline>
</glyph>
<glyph name="e" format="1">
  <advance width="544"/>
  <unicode hex="0065"/>
  <outline>
    <contour>
      <point x="291" y="507" type="move" name="top"/>
    </contour>
    <contour>
      <point x="307" y="43" type="move" name="ogonek"/>
    </contour>
    <contour>
      <point x="97" y="251" type="line"/>
      <point x="482" y="365" type="line"/>
      <point x="507" y="273" type="line"/>
      <point x="121" y="159" type="line"/>
    </contour>
    <contour>
      <point x="402" y="305" type="curve"/>
      <point x="415" y="368"/>
      <point x="403" y="398"/>
      <point x="369" y="420" type="curve" smooth="yes"/>
      <point x="240" y="502"/>
      <point x="87" y="178"/>
      <point x="200" y="84" type="curve" smooth="yes"/>
      <point x="249" y="43"/>
      <point x="370" y="87"/>
      <point x="443" y="137" type="curve"/>
      <point x="446" y="137"/>
      <point x="524" y="57"/>
      <point x="524" y="57" type="curve"/>
      <point x="428" y="0"/>
      <point x="333" y="-72"/>
      <point x="220" y="6" type="curve" smooth="yes"/>
      <point x="197" y="22"/>
      <point x="166" y="45"/>
      <point x="131" y="77" type="curve" smooth="yes"/>
      <point x="-73" y="262"/>
      <point x="148" y="638"/>
      <point x="362" y="502" type="curve" smooth="yes"/>
      <point x="398" y="479"/>
      <point x="432" y="453"/>
      <point x="457" y="420" type="curve" smooth="yes"/>
      <point x="487" y="381"/>
      <point x="505" y="335"/>
      <point x="507" y="273" type="curve"/>
      <point x="508" y="272"/>
      <point x="403" y="304"/>
    </contour>
  </outline>
</glyph>
<glyph name="f" format="1">
  <advance width="406"/>
  <unicode hex="0066"/>
  <outline>
    <contour>
      <point x="53" y="452" type="line"/>
      <point x="380" y="452" type="line"/>
      <point x="350" y="522" type="line"/>
      <point x="23" y="522" type="line"/>
    </contour>
    <contour>
      <point x="243" y="375" type="line"/>
      <point x="243" y="375"/>
      <point x="205" y="512"/>
      <point x="205" y="562" type="curve" smooth="yes"/>
      <point x="205" y="597"/>
      <point x="240" y="647"/>
      <point x="273" y="647" type="curve" smooth="yes"/>
      <point x="302" y="647"/>
      <point x="364" y="615"/>
      <point x="387" y="602" type="curve"/>
      <point x="403" y="626" type="line"/>
      <point x="350" y="666"/>
      <point x="275" y="717"/>
      <point x="255" y="717" type="curve" smooth="yes"/>
      <point x="195" y="717"/>
      <point x="92" y="651"/>
      <point x="92" y="585" type="curve" smooth="yes"/>
      <point x="92" y="566"/>
      <point x="115" y="440"/>
      <point x="128" y="405" type="curve"/>
      <point x="128" y="-1" type="line"/>
      <point x="243" y="-29" type="line"/>
    </contour>
  </outline>
</glyph>
<glyph name="k" format="1">
  <advance width="563"/>
  <unicode hex="006B"/>
  <outline>
    <contour>
      <point x="484" y="451" type="line"/>
      <point x="369" y="479" type="line"/>
      <point x="170" y="291" type="line"/>
      <point x="170" y="682" type="line"/>
      <point x="55" y="710" type="line"/>
      <point x="55" y="-1" type="line"/>
      <point x="170" y="-29" type="line"/>
      <point x="170" y="156" type="line"/>
      <point x="247" y="229" type="line"/>
      <point x="442" y="-30" type="line"/>
      <point x="512" y="16" type="line"/>
      <point x="301" y="279" type="line"/>
    </contour>
  </outline>
</glyph>
<glyph name="o" format="1">
  <advance width="590"/>
  <unicode hex="006F"/>
  <outline>
    <contour>
      <point x="337" y="482" type="move" name="top"/>
    </contour>
    <contour>
      <point x="384" y="381" type="curve" smooth="yes"/>
      <point x="532" y="285"/>
      <point x="366" y="-14"/>
      <point x="216" y="71" type="curve" smooth="yes"/>
      <point x="55" y="162"/>
      <point x="226" y="483"/>
    </contour>
    <contour>
      <point x="481" y="369" type="curve" smooth="yes"/>
      <point x="435" y="410"/>
      <point x="394" y="436"/>
      <point x="326" y="472" type="curve" smooth="yes"/>
      <point x="146" y="567"/>
      <point x="-79" y="251"/>
      <point x="129" y="73" type="curve" smooth="yes"/>
      <point x="157" y="49"/>
      <point x="179" y="29"/>
      <point x="239" y="-3" type="curve" smooth="yes"/>
      <point x="475" y="-129"/>
      <point x="642" y="225"/>
    </contour>
  </outline>
</glyph>
<glyph name="q" format="1">
  <advance width="604"/>
  <unicode hex="0071"/>
  <outline>
    <contour>
      <point x="424" y="-222" type="line"/>
      <point x="539" y="-250" type="line"/>
      <point x="539" y="367" type="line"/>
      <point x="153" y="719"/>
      <point x="-56" y="214"/>
      <point x="105" y="74" type="curve" smooth="yes"/>
      <point x="152" y="34"/>
      <point x="181" y="14"/>
      <point x="230" y="-13" type="curve" smooth="yes"/>
      <point x="276" y="-38"/>
      <point x="362" y="-29"/>
      <point x="424" y="51" type="curve"/>
    </contour>
    <contour>
      <point x="174" y="260" type="curve" smooth="yes"/>
      <point x="200" y="341"/>
      <point x="294" y="448"/>
      <point x="424" y="389" type="curve"/>
      <point x="424" y="221" type="line"/>
      <point x="349" y="36"/>
      <point x="92" y="6"/>
    </contour>
  </outline>
</glyph>
<glyph name="w" format="1">
  <advance width="869"/>
  <unicode hex="0077"/>
  <outline>
    <contour>
      <point x="856" y="450" type="line"/>
      <point x="741" y="478" type="line"/>
      <point x="624" y="135" type="line"/>
      <point x="494" y="450" type="line"/>
      <point x="379" y="478" type="line"/>
      <point x="258" y="128" type="line"/>
      <point x="117" y="450" type="line"/>
      <point x="2" y="478" type="line"/>
      <point x="212" y="-1" type="line"/>
      <point x="213" y="-1" type="line"/>
      <point x="327" y="-29" type="line"/>
      <point x="327" y="-28" type="line"/>
      <point x="328" y="-29" type="line"/>
      <point x="447" y="314" type="line"/>
      <point x="577" y="-1" type="line"/>
      <point x="578" y="-1" type="line"/>
      <point x="692" y="-29" type="line"/>
      <point x="692" y="-28" type="line"/>
      <point x="693" y="-29" type="line"/>
    </contour>
  </outline>
</glyph>
<glyph name="y" format="1">
  <advance width="554"/>
  <unicode hex="0079"/>
  <outline>
    <contour>
      <point x="337" y="507" type="move" name="top"/>
    </contour>
    <contour>
      <point x="484" y="450" type="line"/>
      <point x="369" y="478" type="line"/>
      <point x="369" y="180" type="line"/>
      <point x="315" y="93"/>
      <point x="216" y="33"/>
      <point x="179" y="87" type="curve" smooth="yes"/>
      <point x="166" y="106"/>
      <point x="172" y="452"/>
      <point x="172" y="452" type="curve"/>
      <point x="172" y="452"/>
      <point x="57" y="480"/>
      <point x="58" y="480" type="curve" smooth="yes"/>
      <point x="58" y="480"/>
      <point x="59" y="178"/>
      <point x="64" y="145" type="curve" smooth="yes"/>
      <point x="70" y="109"/>
      <point x="200" y="-26"/>
      <point x="244" y="-29" type="curve" smooth="yes"/>
      <point x="288" y="-32"/>
      <point x="332" y="-1"/>
      <point x="369" y="34" type="curve"/>
      <point x="369" y="-3" type="line" smooth="yes"/>
      <point x="369" y="-168"/>
      <point x="264" y="-206"/>
      <point x="176" y="-162" type="curve" smooth="yes"/>
      <point x="146" y="-147"/>
      <point x="120" y="-131"/>
      <point x="96" y="-117" type="curve"/>
      <point x="70" y="-156" type="line"/>
      <point x="129" y="-190"/>
      <point x="205" y="-238"/>
      <point x="235" y="-251" type="curve" smooth="yes"/>
      <point x="302" y="-280"/>
      <point x="484" y="-188"/>
      <point x="484" y="-62" type="curve" smooth="yes"/>
    </contour>
  </outline>
</glyph>
<glyph name="z" format="1">
  <advance width="509"/>
  <unicode hex="007A"/>
  <outline>
    <contour>
      <point x="214" y="507" type="move" name="top"/>
    </contour>
    <contour>
      <point x="28" y="405" type="line"/>
      <point x="425" y="405" type="line"/>
      <point x="395" y="478" type="line"/>
      <point x="-2" y="478" type="line"/>
    </contour>
    <contour>
      <point x="425" y="404" type="line"/>
      <point x="310" y="432" type="line"/>
      <point x="127" y="197" type="line"/>
      <point x="231" y="158" type="line"/>
    </contour>
    <contour>
      <point x="127" y="197" type="line"/>
      <point x="127" y="197"/>
      <point x="274" y="141"/>
      <point x="316" y="112" type="curve" smooth="yes"/>
      <point x="393" y="59"/>
      <point x="286" y="-226"/>
      <point x="87" y="-148" type="curve" smooth="yes"/>
      <point x="70" y="-141"/>
      <point x="42" y="-122"/>
      <point x="23" y="-109" type="curve"/>
      <point x="0" y="-133" type="line"/>
      <point x="55" y="-187"/>
      <point x="139" y="-241"/>
      <point x="180" y="-248" type="curve" smooth="yes"/>
      <point x="346" y="-276"/>
      <point x="573" y="36"/>
      <point x="391" y="128" type="curve" smooth="yes"/>
      <point x="366" y="141"/>
      <point x="210" y="213"/>
      <point x="162" y="241" type="curve"/>
    </contour>
  </outline>
</glyph>
<glyph name="cent" format="1">
  <advance width="545"/>
  <unicode hex="00A2"/>
  <outline>
    <contour>
      <point x="234" y="13" type="line"/>
      <point x="168" y="85" type="line"/>
      <point x="99" y="-75" type="line"/>
      <point x="169" y="-149" type="line"/>
    </contour>
    <contour>
      <point x="464" y="554" type="line"/>
      <point x="398" y="625" type="line"/>
      <point x="327" y="452" type="line"/>
      <point x="399" y="391" type="line"/>
    </contour>
    <contour>
      <point x="482" y="364" type="line"/>
      <point x="405" y="430"/>
      <point x="294" y="489"/>
      <point x="277" y="489" type="curve" smooth="yes"/>
      <point x="96" y="489"/>
      <point x="-30" y="239"/>
      <point x="96" y="101" type="curve" smooth="yes"/>
      <point x="146" y="46"/>
      <point x="213" y="2"/>
      <point x="258" y="-15" type="curve" smooth="yes"/>
      <point x="342" y="-47"/>
      <point x="393" y="-10"/>
      <point x="484" y="70" type="curve"/>
      <point x="484" y="70"/>
      <point x="410" y="150"/>
      <point x="409" y="149" type="curve" smooth="yes"/>
      <point x="354" y="89"/>
      <point x="268" y="35"/>
      <point x="221" y="64" type="curve" smooth="yes"/>
      <point x="69" y="158"/>
      <point x="202" y="401"/>
      <point x="307" y="405" type="curve" smooth="yes"/>
      <point x="331" y="406"/>
      <point x="388" y="362"/>
      <point x="449" y="317" type="curve"/>
    </contour>
  </outline>
</glyph>
<glyph name="sterling" format="1">
  <advance width="722"/>
  <unicode hex="00A3"/>
  <outline>
    <contour>
      <point x="327" y="1" type="curve"/>
      <point x="315" y="2"/>
      <point x="241" y="-51"/>
      <point x="195" y="-48" type="curve" smooth="yes"/>
      <point x="148" y="-45"/>
      <point x="52" y="19"/>
      <point x="52" y="63" type="curve" smooth="yes"/>
      <point x="52" y="77"/>
      <point x="121" y="163"/>
      <point x="132" y="153" type="curve" smooth="yes"/>
      <point x="153" y="133"/>
      <point x="179" y="112"/>
      <point x="208" y="92" type="curve"/>
      <point x="238" y="276" type="line"/>
      <point x="216" y="277"/>
      <point x="195" y="279"/>
      <point x="176" y="281" type="curve"/>
      <point x="140" y="345" type="line"/>
      <point x="171" y="338"/>
      <point x="208" y="333"/>
      <point x="247" y="331" type="curve"/>
      <point x="259" y="407" type="line" smooth="yes"/>
      <point x="280" y="537"/>
      <point x="429" y="644"/>
      <point x="465" y="623" type="curve"/>
      <point x="533" y="581"/>
      <point x="594" y="513"/>
      <point x="621" y="489" type="curve" smooth="yes"/>
      <point x="659" y="455"/>
      <point x="629" y="360"/>
      <point x="544" y="303" type="curve" smooth="yes"/>
      <point x="508" y="278"/>
      <point x="442" y="270"/>
      <point x="371" y="270" type="curve"/>
      <point x="332" y="34" type="line"/>
      <point x="406" y="14"/>
      <point x="492" y="16"/>
      <point x="586" y="67" type="curve"/>
      <point x="697" y="5" type="line"/>
      <point x="605" y="-40"/>
      <point x="560" y="-56"/>
      <point x="502" y="-56" type="curve" smooth="yes"/>
      <point x="477" y="-56"/>
      <point x="350" y="-9"/>
    </contour>
    <contour>
      <point x="484" y="371" type="curve" smooth="yes"/>
      <point x="554" y="420"/>
      <point x="559" y="501"/>
      <point x="533" y="523" type="curve" smooth="yes"/>
      <point x="487" y="562"/>
      <point x="407" y="488"/>
      <point x="388" y="371" type="curve" smooth="yes"/>
      <point x="382" y="337" type="line"/>
      <point x="424" y="343"/>
      <point x="461" y="354"/>
    </contour>
  </outline>
</glyph>
<glyph name="currency" format="1">
  <advance width="600"/>
  <unicode hex="00A4"/>
  <outline>
    <contour>
      <point x="500" y="58" type="line"/>
      <point x="533" y="98" type="line"/>
      <point x="382" y="231" type="line"/>
      <point x="356" y="206" type="line"/>
    </contour>
    <contour>
      <point x="371" y="455" type="line"/>
      <point x="441" y="397" type="line"/>
      <point x="556" y="511" type="line"/>
      <point x="489" y="566" type="line"/>
    </contour>
    <contour>
      <point x="62" y="117" type="line"/>
      <point x="132" y="59" type="line"/>
      <point x="247" y="173" type="line"/>
      <point x="180" y="228" type="line"/>
    </contour>
    <contour>
      <point x="208" y="383" type="line"/>
      <point x="233" y="414" type="line"/>
      <point x="93" y="553" type="line"/>
      <point x="57" y="516" type="line"/>
    </contour>
    <contour>
      <point x="362" y="412" type="curve" smooth="yes"/>
      <point x="458" y="350"/>
      <point x="356" y="144"/>
      <point x="256" y="203" type="curve" smooth="yes"/>
      <point x="156" y="261"/>
      <point x="268" y="474"/>
    </contour>
    <contour>
      <point x="445" y="413" type="curve" smooth="yes"/>
      <point x="410" y="442"/>
      <point x="381" y="459"/>
      <point x="332" y="484" type="curve" smooth="yes"/>
      <point x="202" y="549"/>
      <point x="33" y="320"/>
      <point x="183" y="198" type="curve" smooth="yes"/>
      <point x="204" y="181"/>
      <point x="219" y="168"/>
      <point x="263" y="146" type="curve" smooth="yes"/>
      <point x="433" y="61"/>
      <point x="560" y="316"/>
    </contour>
  </outline>
</glyph>
<glyph name="registered" format="1">
  <advance width="456"/>
  <unicode hex="00AE"/>
  <outline>
    <contour>
      <point x="308" y="647" type="curve" smooth="yes"/>
      <point x="443" y="563"/>
      <point x="294" y="310"/>
      <point x="145" y="393" type="curve" smooth="yes"/>
      <point x="4" y="474"/>
      <point x="150" y="744"/>
    </contour>
    <contour>
      <point x="384" y="624" type="curve" smooth="yes"/>
      <point x="348" y="656"/>
      <point x="319" y="674"/>
      <point x="257" y="703" type="curve" smooth="yes"/>
      <point x="96" y="777"/>
      <point x="-64" y="525"/>
      <point x="59" y="423" type="curve" smooth="yes"/>
      <point x="116" y="377"/>
      <point x="128" y="371"/>
      <point x="173" y="351" type="curve" smooth="yes"/>
      <point x="351" y="264"/>
      <point x="513" y="517"/>
    </contour>
    <contour>
      <point x="311" y="441" type="line"/>
      <point x="262" y="451" type="line"/>
      <point x="229" y="514" type="line"/>
      <point x="276" y="506" type="line"/>
    </contour>
    <contour>
      <point x="187" y="434" type="line"/>
      <point x="139" y="446" type="line"/>
      <point x="139" y="599" type="line"/>
      <point x="187" y="583" type="line"/>
    </contour>
    <contour>
      <point x="154" y="519" type="line"/>
      <point x="251" y="494"/>
      <point x="277" y="554"/>
      <point x="257" y="572" type="curve" smooth="yes"/>
      <point x="238" y="588"/>
      <point x="186" y="571"/>
      <point x="162" y="567" type="curve"/>
      <point x="139" y="599" type="line"/>
      <point x="174" y="609"/>
      <point x="236" y="616"/>
      <point x="246" y="607" type="curve" smooth="yes"/>
      <point x="257" y="598"/>
      <point x="292" y="573"/>
      <point x="302" y="559" type="curve" smooth="yes"/>
      <point x="319" y="540"/>
      <point x="274" y="460"/>
      <point x="156" y="502" type="curve"/>
    </contour>
  </outline>
</glyph>
<glyph name="plusminus" format="1">
  <advance width="600"/>
  <unicode hex="00B1"/>
  <outline>
    <contour>
      <point x="43" y="96" type="line"/>
      <point x="496" y="96" type="line"/>
      <point x="527" y="15" type="line"/>
      <point x="74" y="15" type="line"/>
    </contour>
    <contour>
      <point x="348" y="145" type="line"/>
      <point x="233" y="173" type="line"/>
      <point x="233" y="652" type="line"/>
      <point x="348" y="624" type="line"/>
    </contour>
    <contour>
      <point x="34" y="440" type="line"/>
      <point x="507" y="440" type="line"/>
      <point x="537" y="367" type="line"/>
      <point x="64" y="367" type="line"/>
    </contour>
  </outline>
</glyph>
<glyph name="mu.math" format="1">
  <advance width="621"/>
  <unicode hex="00B5"/>
  <outline>
    <contour>
      <point x="441" y="473" type="line"/>
      <point x="556" y="445" type="line"/>
      <point x="556" y="-34" type="line"/>
      <point x="441" y="-6" type="line"/>
    </contour>
    <contour>
      <point x="493" y="108" type="line"/>
      <point x="493" y="108"/>
      <point x="395" y="-40"/>
      <point x="293" y="-33" type="curve" smooth="yes"/>
      <point x="249" y="-30"/>
      <point x="98" y="105"/>
      <point x="92" y="141" type="curve" smooth="yes"/>
      <point x="87" y="174"/>
      <point x="88" y="473"/>
      <point x="88" y="473" type="curve"/>
      <point x="87" y="473"/>
      <point x="202" y="445"/>
      <point x="202" y="445" type="curve"/>
      <point x="202" y="445"/>
      <point x="197" y="101"/>
      <point x="207" y="80" type="curve" smooth="yes"/>
      <point x="239" y="12"/>
      <point x="405" y="115"/>
      <point x="447" y="238" type="curve"/>
    </contour>
    <contour>
      <point x="89" y="473" type="line"/>
      <point x="204" y="445" type="line"/>
      <point x="204" y="-141" type="line" smooth="yes"/>
      <point x="204" y="-222"/>
      <point x="157" y="-265"/>
      <point x="36" y="-255" type="curve"/>
      <point x="87" y="-235"/>
      <point x="89" y="-177"/>
      <point x="89" y="-114" type="curve" smooth="yes"/>
    </contour>
  </outline>
</glyph>
<glyph name="onehalf" format="1">
  <advance width="916"/>
  <unicode hex="00BD"/>
  <outline>
    <contour>
      <point x="531" y="76" type="line"/>
      <point x="833" y="76" type="line"/>
      <point x="906" y="-1" type="line"/>
      <point x="603" y="-1" type="line"/>
    </contour>
    <contour>
      <point x="847" y="288" type="curve" smooth="yes"/>
      <point x="886" y="240"/>
      <point x="811" y="168"/>
      <point x="760" y="125" type="curve" smooth="yes"/>
      <point x="716" y="89"/>
      <point x="608" y="4"/>
      <point x="608" y="4" type="curve"/>
      <point x="531" y="76" type="line"/>
      <point x="531" y="76"/>
      <point x="632" y="150"/>
      <point x="678" y="186" type="curve" smooth="yes"/>
      <point x="762" y="253"/>
      <point x="775" y="294"/>
      <point x="751" y="320" type="curve" smooth="yes"/>
      <point x="721" y="353"/>
      <point x="607" y="258"/>
      <point x="590" y="230" type="curve"/>
      <point x="521" y="308" type="line"/>
      <point x="538" y="328"/>
      <point x="682" y="445"/>
      <point x="725" y="409" type="curve" smooth="yes"/>
      <point x="758" y="380"/>
      <point x="816" y="325"/>
    </contour>
    <contour>
      <point x="241" y="303" type="line"/>
      <point x="140" y="325" type="line"/>
      <point x="140" y="605" type="line"/>
      <point x="93" y="553" type="line"/>
      <point x="10" y="582" type="line"/>
      <point x="140" y="714" type="line"/>
      <point x="239" y="685" type="line"/>
    </contour>
    <contour>
      <point x="250" y="-30" type="line"/>
      <point x="160" y="1" type="line"/>
      <point x="571" y="713" type="line"/>
      <point x="663" y="680" type="line"/>
    </contour>
  </outline>
</glyph>
<glyph name="Agrave" format="1">
  <advance width="657"/>
  <unicode hex="00C0"/>
  <outline>
    <contour>
      <point x="332" y="743" type="move" name="top"/>
    </contour>
    <contour>
      <point x="397" y="8" type="move" name="ogonek"/>
    </contour>
    <component base="A"/>
    <component base="grave" xOffset="3" yOffset="161"/>
  </outline>
</glyph>
<glyph name="Eacute" format="1">
  <advance width="647"/>
  <unicode hex="00C9"/>
  <outline>
    <contour>
      <point x="342" y="743" type="move" name="top"/>
    </contour>
    <contour>
      <point x="440" y="101" type="move" name="ogonek"/>
    </contour>
    <component base="acute" xOffset="120" yOffset="159"/>
    <component base="E" xOffset="15"/>
  </outline>
</glyph>
<glyph name="Edieresis" format="1">
  <advance width="647"/>
  <unicode hex="00CB"/>
  <outline>
    <contour>
      <point x="342" y="743" type="move" name="top"/>
    </contour>
    <contour>
      <point x="440" y="101" type="move" name="ogonek"/>
    </contour>
    <component base="dieresis" xOffset="152" yOffset="159"/>
    <component base="E"/>
  </outline>
</glyph>
<glyph name="Icircumflex" format="1">
  <advance width="300"/>
  <unicode hex="00CE"/>
  <outline>
    <contour>
      <point x="234" y="743" type="move" name="top"/>
    </contour>
    <contour>
      <point x="77" y="8" type="move" name="ogonek"/>
    </contour>
    <component base="I" xOffset="15"/>
    <component base="circumflex" xOffset="-21" yOffset="159"/>
  </outline>
</glyph>
<glyph name="Eth" format="1">
  <advance width="649"/>
  <unicode hex="00D0"/>
  <outline>
    <contour>
      <point x="343" y="657" type="move" name="top"/>
    </contour>
  </outline>
</glyph>
<glyph name="Oslash" format="1">
  <advance width="619"/>
  <unicode hex="00D8"/>
  <outline>
    <contour>
      <point x="414" y="743" type="move" name="top"/>
    </contour>
  </outline>
</glyph>
<glyph name="Thorn" format="1">
  <advance width="565"/>
  <unicode hex="00DE"/>
  <outline>
    <contour>
      <point x="154" y="174" type="curve" smooth="yes"/>
      <point x="153" y="175"/>
      <point x="155" y="223"/>
      <point x="152" y="226" type="curve"/>
      <point x="188" y="218"/>
      <point x="293" y="161"/>
      <point x="376" y="281" type="curve" smooth="yes"/>
      <point x="508" y="472"/>
      <point x="335" y="618"/>
      <point x="175" y="418" type="curve"/>
      <point x="63" y="502" type="line"/>
      <point x="157" y="580"/>
      <point x="293" y="627"/>
      <point x="421" y="543" type="curve" smooth="yes"/>
      <point x="674" y="376"/>
      <point x="459" y="78"/>
      <point x="307" y="117" type="curve" smooth="yes"/>
      <point x="271" y="126"/>
      <point x="155" y="173"/>
    </contour>
    <contour>
      <point x="188" y="-29" type="line"/>
      <point x="63" y="-1" type="line"/>
      <point x="63" y="710" type="line"/>
      <point x="188" y="682" type="line"/>
    </contour>
  </outline>
</glyph>
<glyph name="acircumflex" format="1">
  <advance width="518"/>
  <unicode hex="00E2"/>
  <outline>
    <contour>
      <point x="374" y="507" type="move" name="top"/>
    </contour>
    <contour>
      <point x="344" y="7" type="move" name="ogonek"/>
    </contour>
  </outline>
</glyph>
<glyph name="uacute" format="1">
  <advance width="592"/>
  <unicode hex="00FA"/>
  <outline>
    <contour>
      <point x="287" y="507" type="move" name="top"/>
    </contour>
    <contour>
      <point x="283" y="7" type="move" name="ogonek"/>
    </contour>
    <component base="acute" xOffset="65"/>
    <component base="u" xOffset="15"/>
  </outline>
</glyph>
<glyph name="amacron" format="1">
  <advance width="518"/>
  <unicode hex="0101"/>
  <outline>
    <contour>
      <point x="374" y="507" type="move" name="top"/>
    </contour>
    <contour>
      <point x="344" y="7" type="move" name="ogonek"/>
    </contour>
  </outline>
</glyph>
<glyph name="Edotaccent" format="1">
  <advance width="647"/>
  <unicode hex="0116"/>
  <outline>
    <contour>
      <point x="342" y="743" type="move" name="top"/>
    </contour>
    <contour>
      <point x="440" y="101" type="move" name="ogonek"/>
    </contour>
    <component base="E" xOffset="15"/>
    <component base="dotaccent" xOffset="257" yOffset="145"/>
  </outline>
</glyph>
<glyph name="Gbreve" format="1">
  <advance width="597"/>
  <unicode hex="011E"/>
  <outline>
    <contour>
      <point x="461" y="723" type="move" name="top"/>
    </contour>
  </outline>
</glyph>
<glyph name="gbreve" format="1">
  <advance width="471"/>
  <unicode hex="011F"/>
  <outline>
    <contour>
      <point x="326" y="507" type="move" name="top"/>
    </contour>
  </outline>
</glyph>
<glyph name="Lcaron" format="1">
  <advance width="546"/>
  <unicode hex="013D"/>
  <outline>
    <contour>
      <point x="338" y="743" type="move" name="top"/>
    </contour>
  </outline>
</glyph>
<glyph name="Lslash" format="1">
  <advance width="670"/>
  <unicode hex="0141"/>
  <outline>
    <contour>
      <point x="307" y="657" type="move" name="top"/>
    </contour>
    <contour>
      <point x="34" y="277" type="line"/>
      <point x="19" y="334" type="line"/>
      <point x="339" y="452" type="line"/>
      <point x="375" y="375" type="line"/>
    </contour>
    <component base="L" xOffset="14"/>
  </outline>
</glyph>
<glyph name="nacute" format="1">
  <advance width="552"/>
  <unicode hex="0144"/>
  <outline>
    <contour>
      <point x="287" y="507" type="move" name="top"/>
    </contour>
  </outline>
</glyph>
<glyph name="ncaron" format="1">
  <advance width="610"/>
  <unicode hex="0148"/>
  <outline>
    <contour>
      <point x="287" y="507" type="move" name="top"/>
    </contour>
    <component base="caron" xOffset="134"/>
    <component base="n" xOffset="62"/>
  </outline>
</glyph>
<glyph name="omacron" format="1">
  <advance width="590"/>
  <unicode hex="014D"/>
  <outline>
    <contour>
      <point x="287" y="507" type="move" name="top"/>
    </contour>
    <component base="macron" xOffset="122"/>
    <component base="o"/>
  </outline>
</glyph>
<glyph name="rcaron" format="1">
  <advance width="465"/>
  <unicode hex="0159"/>
  <outline>
    <contour>
      <point x="207" y="507" type="move" name="top"/>
    </contour>
    <component base="caron" xOffset="65"/>
    <component base="r"/>
  </outline>
</glyph>
<glyph name="scaron" format="1">
  <advance width="467"/>
  <unicode hex="0161"/>
  <outline>
    <contour>
      <point x="261" y="507" type="move" name="top"/>
    </contour>
    <contour>
      <point x="170" y="7" type="move" name="cedilla"/>
    </contour>
  </outline>
</glyph>
<glyph name="tcedilla" format="1">
  <advance width="364"/>
  <unicode hex="0163"/>
  <outline>
    <contour>
      <point x="124" y="7" type="move" name="cedilla"/>
    </contour>
  </outline>
</glyph>
<glyph name="umacron" format="1">
  <advance width="479"/>
  <unicode hex="016B"/>
  <outline>
    <contour>
      <point x="287" y="507" type="move" name="top"/>
    </contour>
    <contour>
      <point x="283" y="7" type="move" name="ogonek"/>
    </contour>
  </outline>
</glyph>
<glyph name="uring" format="1">
  <advance width="592"/>
  <unicode hex="016F"/>
  <outline>
    <contour>
      <point x="287" y="507" type="move" name="top"/>
    </contour>
    <contour>
      <point x="283" y="7" type="move" name="ogonek"/>
    </contour>
    <component base="ring" xOffset="158"/>
    <component base="u"/>
  </outline>
</glyph>
<glyph name="Zdotaccent" format="1">
  <advance width="646"/>
  <unicode hex="017B"/>
  <outline>
    <contour>
      <point x="378" y="743" type="move" name="top"/>
    </contour>
  </outline>
</glyph>
<glyph name="circumflex" format="1">
  <advance width="354"/>
  <unicode hex="02C6"/>
  <outline>
    <contour>
      <point x="182" y="732" type="line"/>
      <point x="7" y="574" type="line"/>
      <point x="55" y="533" type="line"/>
      <point x="168" y="662" type="line"/>
      <point x="300" y="524" type="line"/>
      <point x="359" y="586" type="line"/>
    </contour>
  </outline>
</glyph>
<glyph name="dotaccent" format="1">
  <advance width="156"/>
  <unicode hex="02D9"/>
  <outline>
    <contour>
      <point x="82" y="568" type="curve"/>
      <point x="54" y="581"/>
      <point x="23" y="607"/>
      <point x="6" y="641" type="curve"/>
      <point x="9" y="664"/>
      <point x="60" y="706"/>
      <point x="81" y="711" type="curve"/>
      <point x="126" y="691"/>
      <point x="147" y="658"/>
      <point x="156" y="640" type="curve"/>
      <point x="147" y="617"/>
      <point x="123" y="589"/>
    </contour>
  </outline>
</glyph>
<glyph name="doubledanda" format="1">
  <advance width="647"/>
  <unicode hex="0965"/>
  <outline>
    <contour>
      <point x="576" y="-57" type="line"/>
      <point x="452" y="-1" type="line"/>
      <point x="452" y="669" type="line"/>
      <point x="576" y="613" type="line"/>
    </contour>
    <contour>
      <point x="325" y="-57" type="line"/>
      <point x="201" y="-1" type="line"/>
      <point x="201" y="669" type="line"/>
      <point x="325" y="613" type="line"/>
    </contour>
  </outline>
</glyph>
<glyph name="quoteright" format="1">
  <advance width="258"/>
  <unicode hex="2019"/>
  <outline>
    <contour>
      <point x="163" y="551" type="curve"/>
      <point x="122" y="578" type="line"/>
      <point x="120" y="634"/>
      <point x="113" y="662"/>
      <point x="113" y="750" type="curve"/>
      <point x="110" y="773"/>
      <point x="242" y="818"/>
      <point x="251" y="806" type="curve"/>
      <point x="256" y="725"/>
      <point x="212" y="607"/>
    </contour>
  </outline>
</glyph>
<glyph name="quotedblright" format="1">
  <advance width="443"/>
  <unicode hex="201D"/>
  <outline>
    <contour>
      <point x="92" y="541" type="line"/>
      <point x="121" y="574"/>
      <point x="170" y="676"/>
      <point x="178" y="727" type="curve"/>
      <point x="180" y="755"/>
      <point x="135" y="794"/>
      <point x="103" y="809" type="curve"/>
      <point x="82" y="804"/>
      <point x="31" y="762"/>
      <point x="28" y="739" type="curve"/>
      <point x="38" y="719"/>
      <point x="57" y="698"/>
      <point x="73" y="684" type="curve"/>
      <point x="75" y="663"/>
      <point x="63" y="606"/>
      <point x="51" y="568" type="curve"/>
    </contour>
    <contour>
      <point x="286" y="541" type="line"/>
      <point x="315" y="574"/>
      <point x="364" y="676"/>
      <point x="372" y="727" type="curve"/>
      <point x="374" y="755"/>
      <point x="329" y="794"/>
      <point x="297" y="809" type="curve"/>
      <point x="276" y="804"/>
      <point x="225" y="762"/>
      <point x="222" y="739" type="curve"/>
      <point x="232" y="719"/>
      <point x="251" y="698"/>
      <point x="267" y="684" type="curve"/>
      <point x="269" y="663"/>
      <point x="257" y="606"/>
      <point x="245" y="568" type="curve"/>
    </contour>
  </outline>
</glyph>
<glyph name="summation" format="1">
  <advance width="833"/>
  <unicode hex="2211"/>
  <outline>
    <contour>
      <point x="139" y="90" type="line"/>
      <point x="441" y="387" type="line"/>
      <point x="521" y="297" type="line"/>
      <point x="219" y="0" type="line"/>
    </contour>
    <contour>
      <point x="137" y="90" type="line"/>
      <point x="692" y="90" type="line"/>
      <point x="772" y="0" type="line"/>
      <point x="215" y="0" type="line"/>
    </contour>
    <contour>
      <point x="142" y="668" type="line"/>
      <point x="523" y="386" type="line"/>
      <point x="521" y="296" type="line"/>
      <point x="140" y="578" type="line"/>
    </contour>
    <contour>
      <point x="142" y="667" type="line"/>
      <point x="652" y="667" type="line"/>
      <point x="732" y="577" type="line"/>
      <point x="140" y="577" type="line"/>
    </contour>
  </outline>
</glyph>
<glyph name="dvBH_LA" format="1">
  <advance width="1128"/>
  <outline>
    <contour>
      <point x="378" y="619" type="line"/>
      <point x="759" y="619" type="line"/>
      <point x="759" y="523" type="line"/>
      <point x="416" y="523" type="line"/>
    </contour>
    <component base="dvBH" xOffset="-9"/>
    <component base="dvLA" xOffset="454"/>
  </outline>
</glyph>
<glyph name="dvB_BHA" format="1">
  <advance width="967"/>
  <outline>
    <contour>
      <point x="422" y="229" type="line"/>
      <point x="229" y="507"/>
      <point x="92" y="258"/>
      <point x="146" y="201" type="curve" smooth="yes"/>
      <point x="173" y="171"/>
      <point x="281" y="150"/>
      <point x="427" y="261" type="curve"/>
      <point x="467" y="242" type="line"/>
      <point x="467" y="242"/>
      <point x="369" y="71"/>
      <point x="267" y="71" type="curve" smooth="yes"/>
      <point x="161" y="71"/>
      <point x="86" y="191"/>
      <point x="49" y="263" type="curve" smooth="yes"/>
      <point x="4" y="348"/>
      <point x="191" y="478"/>
      <point x="259" y="456" type="curve" smooth="yes"/>
      <point x="293" y="445"/>
      <point x="427" y="307"/>
      <point x="452" y="262" type="curve"/>
    </contour>
    <contour>
      <point x="162" y="340" type="line"/>
      <point x="186" y="368" type="line"/>
      <point x="384" y="176" type="line"/>
      <point x="360" y="149" type="line"/>
    </contour>
    <contour>
      <point x="-13" y="619" type="line"/>
      <point x="427" y="619" type="line"/>
      <point x="427" y="523" type="line"/>
      <point x="-13" y="523" type="line"/>
    </contour>
    <component base="dvBHA" xOffset="290"/>
  </outline>
</glyph>
<glyph name="dvB_DA" format="1">
  <advance width="925"/>
  <outline>
    <contour>
      <point x="746" y="619" type="move" name="abvm.bindu"/>
    </contour>
    <contour>
      <point x="863" y="-62" type="move" name="blwm.virama"/>
    </contour>
    <contour>
      <point x="737" y="619" type="move" name="abvm.e"/>
    </contour>
    <contour>
      <point x="880" y="-80" type="move" name="blwm.u"/>
    </contour>
    <component base="dvDA" xOffset="331"/>
    <component base="dvB" xOffset="-4"/>
  </outline>
</glyph>
<glyph name="dvB_J_YA" format="1">
  <advance width="1582"/>
  <outline>
    <contour>
      <point x="426" y="314" type="line"/>
      <point x="276" y="445"/>
      <point x="102" y="258"/>
      <point x="156" y="201" type="curve" smooth="yes"/>
      <point x="183" y="171"/>
      <point x="337" y="147"/>
      <point x="450" y="333" type="curve"/>
      <point x="477" y="242" type="line"/>
      <point x="477" y="242"/>
      <point x="379" y="72"/>
      <point x="277" y="71" type="curve"/>
      <point x="171" y="71"/>
      <point x="96" y="191"/>
      <point x="59" y="263" type="curve" smooth="yes"/>
      <point x="14" y="348"/>
      <point x="224" y="482"/>
      <point x="292" y="460" type="curve" smooth="yes"/>
      <point x="326" y="449"/>
      <point x="403" y="409"/>
      <point x="428" y="364" type="curve"/>
    </contour>
    <contour>
      <point x="172" y="340" type="line"/>
      <point x="196" y="368" type="line"/>
      <point x="394" y="176" type="line"/>
      <point x="370" y="149" type="line"/>
    </contour>
    <contour>
      <point x="-3" y="619" type="line"/>
      <point x="599" y="619" type="line"/>
      <point x="599" y="523" type="line"/>
      <point x="-3" y="523" type="line"/>
    </contour>
    <contour>
      <point x="782" y="345" type="line"/>
      <point x="837" y="315"/>
      <point x="889" y="257"/>
      <point x="897" y="231" type="curve"/>
      <point x="933" y="128"/>
      <point x="697" y="29"/>
      <point x="610" y="88" type="curve" smooth="yes"/>
      <point x="558" y="124"/>
      <point x="476" y="237"/>
      <point x="390" y="364" type="curve"/>
      <point x="415" y="382" type="line"/>
      <point x="474" y="306"/>
      <point x="584" y="123"/>
      <point x="730" y="178" type="curve" smooth="yes"/>
      <point x="782" y="197"/>
      <point x="853" y="237"/>
      <point x="770" y="330" type="curve"/>
    </contour>
    <contour>
      <point x="610" y="401" type="line"/>
      <point x="1063" y="402" type="line"/>
      <point x="1117" y="319" type="line"/>
      <point x="703" y="319" type="line"/>
    </contour>
    <contour>
      <point x="349" y="619" type="line"/>
      <point x="1143" y="619" type="line"/>
      <point x="1143" y="523" type="line"/>
      <point x="349" y="523" type="line"/>
    </contour>
    <component base="dvYA" xOffset="902"/>
  </outline>
</glyph>
<glyph name="dvB_YA" format="1">
  <advance width="999"/>
  <outline>
    <contour>
      <point x="416" y="314" type="line"/>
      <point x="266" y="445"/>
      <point x="92" y="258"/>
      <point x="146" y="201" type="curve" smooth="yes"/>
      <point x="173" y="171"/>
      <point x="299" y="120"/>
      <point x="412" y="306" type="curve"/>
      <point x="437" y="214" type="line"/>
      <point x="437" y="214"/>
      <point x="369" y="72"/>
      <point x="267" y="71" type="curve"/>
      <point x="161" y="71"/>
      <point x="86" y="191"/>
      <point x="49" y="263" type="curve" smooth="yes"/>
      <point x="4" y="348"/>
      <point x="223" y="500"/>
      <point x="282" y="460" type="curve" smooth="yes"/>
      <point x="316" y="436"/>
      <point x="404" y="378"/>
      <point x="440" y="355" type="curve"/>
    </contour>
    <contour>
      <point x="162" y="340" type="line"/>
      <point x="186" y="368" type="line"/>
      <point x="384" y="176" type="line"/>
      <point x="360" y="149" type="line"/>
    </contour>
    <contour>
      <point x="-13" y="619" type="line"/>
      <point x="589" y="619" type="line"/>
      <point x="589" y="523" type="line"/>
      <point x="-13" y="523" type="line"/>
    </contour>
    <component base="dvYA" xOffset="328"/>
  </outline>
</glyph>
<glyph name="dvCA" format="1">
  <advance width="756"/>
  <outline>
    <contour>
      <point x="-70" y="522" type="line"/>
      <point x="564" y="522" type="line"/>
      <point x="564" y="335" type="line"/>
      <point x="511" y="221"/>
      <point x="337" y="116"/>
      <point x="281" y="169" type="curve" smooth="yes"/>
      <point x="218" y="227"/>
      <point x="298" y="317"/>
      <point x="409" y="319" type="curve" smooth="yes"/>
      <point x="418" y="319" type="line"/>
      <point x="320" y="402" type="line"/>
      <point x="2" y="402" type="line"/>
      <point x="98" y="319" type="line"/>
      <point x="184" y="319" type="line"/>
      <point x="154" y="285"/>
      <point x="140" y="248"/>
      <point x="165" y="220" type="curve" smooth="yes"/>
      <point x="218" y="159"/>
      <point x="237" y="148"/>
      <point x="297" y="92" type="curve" smooth="yes"/>
      <point x="341" y="50"/>
      <point x="470" y="70"/>
      <point x="564" y="154" type="curve"/>
      <point x="564" y="0" type="line"/>
      <point x="688" y="-56" type="line"/>
      <point x="688" y="522" type="line"/>
      <point x="774" y="522" type="line"/>
      <point x="774" y="619" type="line"/>
      <point x="-70" y="619" type="line"/>
    </contour>
  </outline>
</glyph>
<glyph name="dvCHA" format="1">
  <advance width="778"/>
  <outline>
    <contour>
      <point x="569" y="662" type="move" name="abvm.bindu"/>
    </contour>
    <contour>
      <point x="341" y="0" type="move" name="blwm.virama"/>
    </contour>
    <contour>
      <point x="590" y="620" type="move" name="abvm.e"/>
    </contour>
    <contour>
      <point x="391" y="-10" type="move" name="blwm.u"/>
    </contour>
    <contour>
      <point x="-8" y="522" type="line"/>
      <point x="787" y="522" type="line"/>
      <point x="787" y="619" type="line"/>
      <point x="-8" y="619" type="line"/>
    </contour>
    <contour>
      <point x="543" y="164" type="line"/>
      <point x="700" y="-20" type="line"/>
      <point x="732" y="11" type="line"/>
      <point x="732" y="11"/>
      <point x="561" y="187"/>
      <point x="560" y="186" type="curve" smooth="yes"/>
    </contour>
    <contour>
      <point x="161" y="392" type="curve" smooth="yes"/>
      <point x="231" y="320"/>
      <point x="236" y="318"/>
      <point x="253" y="304" type="curve"/>
      <point x="272" y="324" type="line"/>
      <point x="161" y="418"/>
      <point x="239" y="472"/>
      <point x="360" y="521" type="curve"/>
      <point x="260" y="560" type="line"/>
      <point x="108" y="498"/>
      <point x="102" y="452"/>
    </contour>
    <contour>
      <point x="708" y="397" type="curve" smooth="yes"/>
      <point x="691" y="426"/>
      <point x="616" y="532"/>
      <point x="591" y="532" type="curve" smooth="yes"/>
      <point x="496" y="532"/>
      <point x="416" y="323"/>
      <point x="447" y="276" type="curve" smooth="yes"/>
      <point x="463" y="250"/>
      <point x="514" y="191"/>
      <point x="549" y="160" type="curve"/>
      <point x="567" y="181" type="line"/>
      <point x="469" y="271"/>
      <point x="575" y="492"/>
      <point x="626" y="439" type="curve" smooth="yes"/>
      <point x="737" y="326"/>
      <point x="398" y="-53"/>
      <point x="260" y="110" type="curve" smooth="yes"/>
      <point x="187" y="196"/>
      <point x="318" y="260"/>
      <point x="413" y="298" type="curve"/>
      <point x="351" y="359" type="line"/>
      <point x="274" y="350"/>
      <point x="106" y="231"/>
      <point x="147" y="177" type="curve" smooth="yes"/>
      <point x="197" y="112"/>
      <point x="234" y="66"/>
      <point x="293" y="7" type="curve" smooth="yes"/>
      <point x="425" y="-125"/>
      <point x="807" y="223"/>
    </contour>
  </outline>
</glyph>
<glyph name="dvDA_mU" format="1">
  <advance width="559"/>
  <outline>
    <contour>
      <point x="432" y="662" type="move" name="abvm.bindu"/>
    </contour>
    <contour>
      <point x="432" y="672" type="move" name="abvm.e"/>
    </contour>
  </outline>
</glyph>
<glyph name="dvDDH_DDHA" format="1">
  <advance width="604"/>
  <outline>
    <contour>
      <point x="460" y="662" type="move" name="abvm.bindu"/>
    </contour>
    <contour>
      <point x="243" y="-395" type="move" name="blwm.virama"/>
    </contour>
    <contour>
      <point x="487" y="672" type="move" name="abvm.e"/>
    </contour>
    <contour>
      <point x="243" y="-380" type="move" name="blwm.u"/>
    </contour>
    <contour>
      <point x="349" y="-1" type="line"/>
      <point x="349" y="32" type="line"/>
      <point x="265" y="32"/>
      <point x="178" y="99"/>
      <point x="92" y="235" type="curve" smooth="yes"/>
      <point x="44" y="311"/>
      <point x="117" y="448"/>
      <point x="194" y="456" type="curve"/>
      <point x="349" y="467" type="line"/>
      <point x="349" y="523" type="line"/>
      <point x="-10" y="523" type="line"/>
      <point x="-10" y="619" type="line"/>
      <point x="649" y="619" type="line"/>
      <point x="649" y="523" type="line"/>
      <point x="460" y="523" type="line"/>
      <point x="460" y="390" type="line"/>
      <point x="301" y="389" type="line" smooth="yes"/>
      <point x="164" y="388"/>
      <point x="111" y="79"/>
      <point x="358" y="132" type="curve"/>
      <point x="338" y="154"/>
      <point x="317" y="186"/>
      <point x="306" y="211" type="curve" smooth="yes"/>
      <point x="276" y="281"/>
      <point x="392" y="344"/>
      <point x="417" y="344" type="curve" smooth="yes"/>
      <point x="442" y="344"/>
      <point x="580" y="210"/>
      <point x="569" y="193" type="curve" smooth="yes"/>
      <point x="534" y="138"/>
      <point x="497" y="98"/>
      <point x="460" y="71" type="curve"/>
      <point x="460" y="-78" type="line"/>
      <point x="301" y="-79" type="line" smooth="yes"/>
      <point x="164" y="-80"/>
      <point x="111" y="-389"/>
      <point x="358" y="-336" type="curve"/>
      <point x="338" y="-314"/>
      <point x="317" y="-282"/>
      <point x="306" y="-257" type="curve" smooth="yes"/>
      <point x="276" y="-187"/>
      <point x="392" y="-124"/>
      <point x="417" y="-124" type="curve" smooth="yes"/>
      <point x="442" y="-124"/>
      <point x="580" y="-258"/>
      <point x="569" y="-275" type="curve" smooth="yes"/>
      <point x="424" y="-499"/>
      <point x="258" y="-493"/>
      <point x="92" y="-233" type="curve" smooth="yes"/>
      <point x="44" y="-157"/>
      <point x="117" y="-20"/>
      <point x="194" y="-12" type="curve"/>
    </contour>
    <contour>
      <point x="389" y="145" type="curve"/>
      <point x="439" y="183"/>
      <point x="498" y="241"/>
      <point x="476" y="263" type="curve" smooth="yes"/>
      <point x="453" y="286"/>
      <point x="365" y="221"/>
    </contour>
    <contour>
      <point x="389" y="-323" type="curve"/>
      <point x="439" y="-285"/>
      <point x="498" y="-227"/>
      <point x="476" y="-205" type="curve" smooth="yes"/>
      <point x="453" y="-182"/>
      <point x="365" y="-247"/>
    </contour>
  </outline>
</glyph>
<glyph name="dvDDH_VA" format="1">
  <advance width="604"/>
  <outline>
    <contour>
      <point x="460" y="662" type="move" name="abvm.bindu"/>
    </contour>
    <contour>
      <point x="243" y="-395" type="move" name="blwm.virama"/>
    </contour>
    <contour>
      <point x="487" y="672" type="move" name="abvm.e"/>
    </contour>
    <contour>
      <point x="243" y="-380" type="move" name="blwm.u"/>
    </contour>
    <contour>
      <point x="349" y="467" type="line"/>
      <point x="349" y="523" type="line"/>
      <point x="-10" y="523" type="line"/>
      <point x="-10" y="619" type="line"/>
      <point x="649" y="619" type="line"/>
      <point x="649" y="523" type="line"/>
      <point x="460" y="523" type="line"/>
      <point x="460" y="390" type="line"/>
      <point x="301" y="389" type="line" smooth="yes"/>
      <point x="164" y="388"/>
      <point x="111" y="79"/>
      <point x="358" y="132" type="curve"/>
      <point x="338" y="154"/>
      <point x="317" y="186"/>
      <point x="306" y="211" type="curve" smooth="yes"/>
      <point x="276" y="281"/>
      <point x="392" y="344"/>
      <point x="417" y="344" type="curve" smooth="yes"/>
      <point x="442" y="344"/>
      <point x="580" y="210"/>
      <point x="569" y="193" type="curve"/>
      <point x="569" y="-458" type="line"/>
      <point x="459" y="-410" type="line"/>
      <point x="459" y="-303" type="line"/>
      <point x="316" y="-452"/>
      <point x="196" y="-349"/>
      <point x="118" y="-196" type="curve"/>
      <point x="73" y="-111"/>
      <point x="292" y="41"/>
      <point x="351" y="1" type="curve" smooth="yes"/>
      <point x="459" y="-72" type="line"/>
      <point x="459" y="70" type="line"/>
      <point x="342" y="-12"/>
      <point x="217" y="38"/>
      <point x="92" y="235" type="curve" smooth="yes"/>
      <point x="44" y="311"/>
      <point x="117" y="448"/>
      <point x="194" y="456" type="curve"/>
    </contour>
    <contour>
      <point x="215" y="-258" type="curve" smooth="yes"/>
      <point x="240" y="-286"/>
      <point x="352" y="-332"/>
      <point x="459" y="-186" type="curve"/>
      <point x="459" y="-125" type="line"/>
      <point x="316" y="-35"/>
      <point x="164" y="-204"/>
    </contour>
    <contour>
      <point x="389" y="145" type="curve"/>
      <point x="439" y="183"/>
      <point x="498" y="241"/>
      <point x="476" y="263" type="curve" smooth="yes"/>
      <point x="453" y="286"/>
      <point x="365" y="221"/>
    </contour>
  </outline>
</glyph>
<glyph name="dvDHA" format="1">
  <advance width="692"/>
  <outline>
    <contour>
      <point x="489" y="2" type="line"/>
      <point x="613" y="-54" type="line"/>
      <point x="613" y="539" type="line"/>
      <point x="489" y="539" type="line"/>
    </contour>
    <contour>
      <point x="414" y="522" type="line"/>
      <point x="697" y="522" type="line"/>
      <point x="697" y="619" type="line"/>
      <point x="375" y="619" type="line"/>
    </contour>
    <contour>
      <point x="142" y="386" type="line"/>
      <point x="249" y="370"/>
      <point x="394" y="478"/>
      <point x="323" y="542" type="curve" smooth="yes"/>
      <point x="296" y="566"/>
      <point x="282" y="583"/>
      <point x="214" y="625" type="curve"/>
      <point x="178" y="646"/>
      <point x="-45" y="516"/>
      <point x="42" y="433" type="curve" smooth="yes"/>
      <point x="126" y="352"/>
      <point x="135" y="339"/>
      <point x="181" y="309" type="curve"/>
      <point x="206" y="329" type="line"/>
      <point x="2" y="469"/>
      <point x="223" y="575"/>
      <point x="266" y="539" type="curve" smooth="yes"/>
      <point x="289" y="519"/>
      <point x="185" y="423"/>
      <point x="93" y="449" type="curve"/>
    </contour>
    <contour>
      <point x="311" y="380" type="line"/>
      <point x="238" y="386"/>
      <point x="28" y="285"/>
      <point x="83" y="221" type="curve" smooth="yes"/>
      <point x="137" y="160"/>
      <point x="156" y="149"/>
      <point x="216" y="93" type="curve" smooth="yes"/>
      <point x="274" y="38"/>
      <point x="473" y="98"/>
      <point x="552" y="260" type="curve"/>
      <point x="491" y="353" type="line"/>
      <point x="463" y="219"/>
      <point x="257" y="115"/>
      <point x="200" y="170" type="curve" smooth="yes"/>
      <point x="136" y="230"/>
      <point x="269" y="294"/>
      <point x="377" y="313" type="curve"/>
    </contour>
  </outline>
</glyph>
<glyph name="dvD_B_RA" format="1">
  <advance width="605"/>
  <outline>
    <contour>
      <point x="411" y="619" type="move" name="abvm.bindu"/>
    </contour>
    <contour>
      <point x="315" y="-275" type="move" name="blwm.virama"/>
    </contour>
    <contour>
      <point x="394" y="619" type="move" name="abvm.e"/>
    </contour>
    <contour>
      <point x="315" y="-265" type="move" name="blwm.u"/>
    </contour>
    <contour>
      <point x="196" y="-17" type="line"/>
      <point x="211" y="17" type="line"/>
      <point x="463" y="-65" type="line"/>
      <point x="476" y="-40"/>
      <point x="488" y="-14"/>
      <point x="499" y="14" type="curve"/>
      <point x="540" y="-20" type="line"/>
      <point x="515" y="-70"/>
      <point x="495" y="-127"/>
      <point x="457" y="-244" type="curve"/>
      <point x="373" y="-232" type="line"/>
      <point x="400" y="-182"/>
      <point x="424" y="-140"/>
      <point x="447" y="-97" type="curve"/>
    </contour>
    <component base="dvD_VA"/>
  </outline>
</glyph>
<glyph name="dvEcandra" format="1">
  <advance width="661"/>
  <outline>
    <contour>
      <point x="460" y="827" type="move" name="abvm.bindu"/>
    </contour>
    <component base="dvE" xOffset="-3"/>
    <component base="dvmEcandra" xOffset="502"/>
  </outline>
</glyph>
<glyph name="dvEyelash" format="1">
  <advance width="0"/>
  <outline>
    <contour>
      <point x="-47" y="375" type="line"/>
      <point x="-47" y="375"/>
      <point x="58" y="269"/>
      <point x="99" y="269" type="curve" smooth="yes"/>
      <point x="165" y="270"/>
      <point x="274" y="387"/>
      <point x="274" y="387" type="curve"/>
      <point x="345" y="312" type="line"/>
      <point x="345" y="312"/>
      <point x="225" y="185"/>
      <point x="134" y="187" type="curve" smooth="yes"/>
      <point x="68" y="188"/>
      <point x="-73" y="348"/>
      <point x="-73" y="348" type="curve"/>
    </contour>
  </outline>
</glyph>
<glyph name="dvEyelash_HA" format="1">
  <advance width="749"/>
  <outline>
    <contour>
      <point x="664" y="662" type="move" name="abvm.bindu"/>
    </contour>
    <contour>
      <point x="522" y="-141" type="move" name="blwm.virama"/>
    </contour>
    <contour>
      <point x="654" y="672" type="move" name="abvm.e"/>
    </contour>
    <contour>
      <point x="639" y="-6" type="move" name="blwm.u"/>
    </contour>
    <contour>
      <point x="-26" y="619" type="line"/>
      <point x="769" y="619" type="line"/>
      <point x="769" y="523" type="line"/>
      <point x="664" y="523" type="line"/>
      <point x="664" y="381" type="line"/>
      <point x="443" y="381" type="line" smooth="yes"/>
      <point x="362" y="381"/>
      <point x="328" y="278"/>
      <point x="391" y="239" type="curve"/>
      <point x="450" y="280"/>
      <point x="517" y="310"/>
      <point x="550" y="309" type="curve" smooth="yes"/>
      <point x="603" y="308"/>
      <point x="735" y="163"/>
      <point x="736" y="138" type="curve" smooth="yes"/>
      <point x="739" y="67"/>
      <point x="659" y="6"/>
      <point x="624" y="-8" type="curve"/>
      <point x="540" y="71" type="line"/>
      <point x="598" y="96"/>
      <point x="657" y="156"/>
      <point x="627" y="198" type="curve" smooth="yes"/>
      <point x="587" y="255"/>
      <point x="384" y="129"/>
      <point x="382" y="54" type="curve"/>
      <point x="379" y="-15"/>
      <point x="502" y="-102"/>
      <point x="578" y="-164" type="curve"/>
      <point x="553" y="-199" type="line"/>
      <point x="429" y="-90"/>
      <point x="281" y="5"/>
      <point x="278" y="102" type="curve" smooth="yes"/>
      <point x="277" y="119"/>
      <point x="285" y="137"/>
      <point x="299" y="156" type="curve"/>
      <point x="277" y="145"/>
      <point x="252" y="137"/>
      <point x="224" y="139" type="curve" smooth="yes"/>
      <point x="125" y="144"/>
      <point x="12" y="291"/>
      <point x="12" y="291" type="curve"/>
      <point x="38" y="318" type="line"/>
      <point x="38" y="318"/>
      <point x="117" y="222"/>
      <point x="189" y="221" type="curve" smooth="yes"/>
      <point x="237" y="220"/>
      <point x="278" y="260"/>
      <point x="298" y="283" type="curve"/>
      <point x="256" y="328"/>
      <point x="315" y="452"/>
      <point x="369" y="455" type="curve" smooth="yes"/>
      <point x="553" y="466" type="line"/>
      <point x="553" y="523" type="line"/>
      <point x="-26" y="523" type="line"/>
    </contour>
  </outline>
</glyph>
<glyph name="dvGH_RA" format="1">
  <advance width="708"/>
  <outline>
    <contour>
      <point x="591" y="203" type="line"/>
      <point x="560" y="153"/>
      <point x="410" y="34"/>
      <point x="315" y="-56" type="curve"/>
      <point x="231" y="10" type="line"/>
      <point x="320" y="76"/>
      <point x="498" y="179"/>
      <point x="560" y="252" type="curve"/>
    </contour>
    <contour>
      <point x="507" y="538" type="line"/>
      <point x="631" y="538" type="line"/>
      <point x="631" y="-55" type="line"/>
      <point x="507" y="1" type="line"/>
    </contour>
    <contour>
      <point x="-11" y="619" type="line"/>
      <point x="716" y="619" type="line"/>
      <point x="716" y="523" type="line"/>
      <point x="-11" y="523" type="line"/>
    </contour>
    <contour>
      <point x="399" y="287" type="line"/>
      <point x="291" y="268"/>
      <point x="180" y="230"/>
      <point x="243" y="170" type="curve" smooth="yes"/>
      <point x="301" y="115"/>
      <point x="463" y="187"/>
      <point x="510" y="305" type="curve"/>
      <point x="578" y="209" type="line"/>
      <point x="484" y="67"/>
      <point x="290" y="56"/>
      <point x="240" y="97" type="curve" smooth="yes"/>
      <point x="196" y="133"/>
      <point x="172" y="159"/>
      <point x="130" y="209" type="curve" smooth="yes"/>
      <point x="75" y="274"/>
      <point x="252" y="370"/>
      <point x="325" y="364" type="curve"/>
    </contour>
    <contour>
      <point x="225" y="567" type="curve"/>
      <point x="322" y="523" type="line"/>
      <point x="199" y="476"/>
      <point x="124" y="384"/>
      <point x="238" y="325" type="curve"/>
      <point x="212" y="298" type="line"/>
      <point x="117" y="326"/>
      <point x="-21" y="448"/>
    </contour>
  </outline>
</glyph>
<glyph name="dvGH_YA" format="1">
  <advance width="1103"/>
  <outline>
    <contour>
      <point x="-11" y="619" type="line"/>
      <point x="716" y="619" type="line"/>
      <point x="716" y="522" type="line"/>
      <point x="-11" y="522" type="line"/>
    </contour>
    <contour>
      <point x="398" y="329" type="line"/>
      <point x="290" y="310"/>
      <point x="157" y="229"/>
      <point x="220" y="169" type="curve" smooth="yes"/>
      <point x="268" y="124"/>
      <point x="415" y="175"/>
      <point x="487" y="267" type="curve"/>
      <point x="558" y="206" type="line"/>
      <point x="462" y="52"/>
      <point x="294" y="37"/>
      <point x="236" y="92" type="curve" smooth="yes"/>
      <point x="177" y="148"/>
      <point x="158" y="159"/>
      <point x="104" y="220" type="curve" smooth="yes"/>
      <point x="48" y="284"/>
      <point x="251" y="412"/>
      <point x="324" y="406" type="curve"/>
    </contour>
    <contour>
      <point x="105" y="414" type="curve" smooth="yes"/>
      <point x="47" y="474"/>
      <point x="74" y="504"/>
      <point x="225" y="567" type="curve"/>
      <point x="320" y="522" type="line"/>
      <point x="199" y="473"/>
      <point x="124" y="438"/>
      <point x="236" y="344" type="curve"/>
      <point x="217" y="324" type="line"/>
      <point x="200" y="338"/>
      <point x="176" y="342"/>
    </contour>
    <component base="dvYA" xOffset="429"/>
  </outline>
</glyph>
<glyph name="dvG_R" format="1">
  <advance width="454"/>
  <outline>
    <contour>
      <point x="486" y="154" type="line"/>
      <point x="455" y="104"/>
      <point x="408" y="17"/>
      <point x="306" y="-64" type="curve"/>
      <point x="222" y="2" type="line"/>
      <point x="311" y="68"/>
      <point x="393" y="130"/>
      <point x="455" y="203" type="curve"/>
    </contour>
    <contour>
      <point x="-5" y="619" type="line"/>
      <point x="657" y="619" type="line"/>
      <point x="657" y="523" type="line"/>
      <point x="-5" y="523" type="line"/>
    </contour>
    <contour>
      <point x="205" y="526" type="line"/>
      <point x="388" y="330"/>
      <point x="315" y="70"/>
      <point x="141" y="70" type="curve" smooth="yes"/>
      <point x="116" y="70"/>
      <point x="53" y="145"/>
      <point x="44" y="165" type="curve" smooth="yes"/>
      <point x="32" y="193"/>
      <point x="48" y="285"/>
      <point x="84" y="298" type="curve" smooth="yes"/>
      <point x="88" y="299"/>
      <point x="137" y="268"/>
      <point x="145" y="261" type="curve" smooth="yes"/>
      <point x="157" y="250"/>
      <point x="158" y="237"/>
      <point x="164" y="212" type="curve"/>
      <point x="224" y="298"/>
      <point x="215" y="448"/>
      <point x="153" y="526" type="curve"/>
    </contour>
  </outline>
</glyph>
<glyph name="dvHA_mU" format="1">
  <advance width="515"/>
  <outline>
    <contour>
      <point x="395" y="662" type="move" name="abvm.bindu"/>
    </contour>
    <contour>
      <point x="375" y="618" type="move" name="abvm.e"/>
    </contour>
    <contour>
      <point x="308" y="309" type="curve" smooth="yes"/>
      <point x="275" y="310"/>
      <point x="208" y="280"/>
      <point x="149" y="239" type="curve"/>
      <point x="86" y="278"/>
      <point x="120" y="381"/>
      <point x="201" y="381" type="curve" smooth="yes"/>
      <point x="422" y="381" type="line"/>
      <point x="422" y="523" type="line"/>
      <point x="527" y="523" type="line"/>
      <point x="527" y="619" type="line"/>
      <point x="-13" y="619" type="line"/>
      <point x="-13" y="523" type="line"/>
      <point x="311" y="523" type="line"/>
      <point x="311" y="466" type="line"/>
      <point x="127" y="455" type="line" smooth="yes"/>
      <point x="73" y="452"/>
      <point x="14" y="328"/>
      <point x="56" y="283" type="curve" smooth="yes"/>
      <point x="74" y="263"/>
      <point x="97" y="241"/>
      <point x="122" y="219" type="curve"/>
      <point x="73" y="181"/>
      <point x="35" y="138"/>
      <point x="36" y="102" type="curve" smooth="yes"/>
      <point x="38" y="38"/>
      <point x="111" y="-29"/>
      <point x="203" y="-91" type="curve"/>
      <point x="176" y="-104"/>
      <point x="144" y="-128"/>
      <point x="106" y="-151" type="curve"/>
      <point x="186" y="-225" type="line"/>
      <point x="270" y="-172" type="line" smooth="yes"/>
      <point x="323" y="-139"/>
      <point x="395" y="-210"/>
      <point x="373" y="-267" type="curve" smooth="yes"/>
      <point x="332" y="-376"/>
      <point x="160" y="-372"/>
      <point x="17" y="-198" type="curve"/>
      <point x="-16" y="-223" type="line"/>
      <point x="78" y="-338"/>
      <point x="178" y="-444"/>
      <point x="317" y="-425" type="curve" smooth="yes"/>
      <point x="440" y="-409"/>
      <point x="542" y="-294"/>
      <point x="451" y="-209" type="curve" smooth="yes"/>
      <point x="423" y="-183"/>
      <point x="375" y="-147"/>
      <point x="329" y="-120" type="curve"/>
      <point x="245" y="-67"/>
      <point x="137" y="-3"/>
      <point x="140" y="54" type="curve"/>
      <point x="142" y="129"/>
      <point x="345" y="255"/>
      <point x="385" y="198" type="curve" smooth="yes"/>
      <point x="415" y="156"/>
      <point x="356" y="96"/>
      <point x="298" y="71" type="curve"/>
      <point x="382" y="-8" type="line"/>
      <point x="417" y="6"/>
      <point x="497" y="67"/>
      <point x="494" y="138" type="curve" smooth="yes"/>
      <point x="493" y="163"/>
      <point x="361" y="308"/>
    </contour>
  </outline>
</glyph>
<glyph name="dvH_LA" format="1">
  <advance width="707"/>
  <outline>
    <contour>
      <point x="517" y="619" type="move" name="abvm.bindu"/>
    </contour>
    <contour>
      <point x="417" y="-234" type="move" name="blwm.virama"/>
    </contour>
    <contour>
      <point x="510" y="619" type="move" name="abvm.e"/>
    </contour>
    <contour>
      <point x="404" y="-237" type="move" name="blwm.u"/>
    </contour>
    <contour>
      <point x="-13" y="619" type="line"/>
      <point x="716" y="619" type="line"/>
      <point x="716" y="523" type="line"/>
      <point x="-13" y="523" type="line"/>
    </contour>
    <contour>
      <point x="148" y="200" type="line"/>
      <point x="119" y="225"/>
      <point x="77" y="260"/>
      <point x="56" y="283" type="curve" smooth="yes"/>
      <point x="14" y="328"/>
      <point x="73" y="452"/>
      <point x="127" y="455" type="curve"/>
      <point x="451" y="466" type="line"/>
      <point x="451" y="544" type="line"/>
      <point x="562" y="544" type="line"/>
      <point x="562" y="381" type="line"/>
      <point x="201" y="381" type="line" smooth="yes"/>
      <point x="118" y="381"/>
      <point x="99" y="263"/>
      <point x="169" y="226" type="curve"/>
    </contour>
    <contour>
      <point x="460" y="64" type="line"/>
      <point x="314" y="177"/>
      <point x="275" y="2"/>
      <point x="383" y="-77" type="curve"/>
      <point x="359" y="-100" type="line"/>
      <point x="301" y="-67"/>
      <point x="228" y="33"/>
      <point x="224" y="65" type="curve" smooth="yes"/>
      <point x="217" y="121"/>
      <point x="318" y="198"/>
      <point x="362" y="183" type="curve" smooth="yes"/>
      <point x="395" y="172"/>
      <point x="448" y="117"/>
      <point x="477" y="85" type="curve"/>
    </contour>
    <contour>
      <point x="517" y="-41" type="line"/>
      <point x="695" y="123"/>
      <point x="519" y="193"/>
      <point x="461" y="-14" type="curve"/>
      <point x="395" y="21" type="line"/>
      <point x="406" y="52"/>
      <point x="457" y="150"/>
      <point x="529" y="167" type="curve"/>
      <point x="352" y="352"/>
      <point x="54" y="110"/>
      <point x="199" y="-66" type="curve" smooth="yes"/>
      <point x="230" y="-104"/>
      <point x="310" y="-191"/>
      <point x="446" y="-133" type="curve"/>
      <point x="511" y="-213" type="line"/>
      <point x="443" y="-237"/>
      <point x="312" y="-246"/>
      <point x="294" y="-232" type="curve" smooth="yes"/>
      <point x="217" y="-173"/>
      <point x="38" y="25"/>
      <point x="36" y="102" type="curve" smooth="yes"/>
      <point x="34" y="185"/>
      <point x="357" y="344"/>
      <point x="421" y="330" type="curve" smooth="yes"/>
      <point x="468" y="320"/>
      <point x="625" y="157"/>
      <point x="658" y="69" type="curve" smooth="yes"/>
      <point x="665" y="49"/>
      <point x="643" y="-39"/>
      <point x="576" y="-87" type="curve"/>
    </contour>
  </outline>
</glyph>
<glyph name="dvH_YA" format="1">
  <advance width="768"/>
  <outline>
    <contour>
      <point x="-13" y="619" type="line"/>
      <point x="780" y="619" type="line"/>
      <point x="780" y="523" type="line"/>
      <point x="-13" y="523" type="line"/>
    </contour>
    <contour>
      <point x="159" y="200" type="line"/>
      <point x="130" y="225"/>
      <point x="88" y="260"/>
      <point x="67" y="283" type="curve" smooth="yes"/>
      <point x="25" y="328"/>
      <point x="84" y="452"/>
      <point x="138" y="455" type="curve"/>
      <point x="361" y="466" type="line"/>
      <point x="361" y="544" type="line"/>
      <point x="472" y="544" type="line"/>
      <point x="472" y="381" type="line"/>
      <point x="212" y="381" type="line" smooth="yes"/>
      <point x="129" y="381"/>
      <point x="110" y="263"/>
      <point x="180" y="226" type="curve"/>
    </contour>
    <contour>
      <point x="587" y="535" type="line"/>
      <point x="711" y="535" type="line"/>
      <point x="711" y="-58" type="line"/>
      <point x="587" y="-2" type="line"/>
    </contour>
    <contour>
      <point x="647" y="160" type="line"/>
      <point x="604" y="8"/>
      <point x="435" y="-88"/>
      <point x="342" y="-18" type="curve" smooth="yes"/>
      <point x="301" y="13"/>
      <point x="264" y="49"/>
      <point x="233" y="100" type="curve" smooth="yes"/>
      <point x="226" y="112"/>
      <point x="392" y="170"/>
      <point x="393" y="200" type="curve" smooth="yes"/>
      <point x="395" y="287"/>
      <point x="51" y="154"/>
      <point x="213" y="-42" type="curve" smooth="yes"/>
      <point x="244" y="-80"/>
      <point x="326" y="-159"/>
      <point x="460" y="-78" type="curve"/>
      <point x="530" y="-164" type="line"/>
      <point x="462" y="-188"/>
      <point x="326" y="-222"/>
      <point x="308" y="-208" type="curve" smooth="yes"/>
      <point x="231" y="-149"/>
      <point x="49" y="25"/>
      <point x="47" y="102" type="curve" smooth="yes"/>
      <point x="45" y="185"/>
      <point x="264" y="310"/>
      <point x="330" y="308" type="curve" smooth="yes"/>
      <point x="372" y="308"/>
      <point x="476" y="211"/>
      <point x="479" y="174" type="curve" smooth="yes"/>
      <point x="481" y="151"/>
      <point x="427" y="109"/>
      <point x="320" y="62" type="curve"/>
      <point x="398" y="-43"/>
      <point x="614" y="154"/>
      <point x="623" y="282" type="curve"/>
    </contour>
  </outline>
</glyph>
<glyph name="dvJ_KA" format="1">
  <advance width="1317"/>
  <outline>
    <contour>
      <point x="979" y="662" type="move" name="abvm.bindu"/>
    </contour>
    <contour>
      <point x="904" y="0" type="move" name="blwm.virama"/>
    </contour>
    <contour>
      <point x="980" y="672" type="move" name="abvm.e"/>
    </contour>
    <contour>
      <point x="903" y="-10" type="move" name="blwm.u"/>
    </contour>
    <component base="dvKA" xOffset="523"/>
  </outline>
</glyph>
<glyph name="dvJ_TTA" format="1">
  <advance width="1122"/>
  <outline>
    <contour>
      <point x="969" y="662" type="move" name="abvm.bindu"/>
    </contour>
    <contour>
      <point x="799" y="0" type="move" name="blwm.virama"/>
    </contour>
    <contour>
      <point x="988" y="672" type="move" name="abvm.e"/>
    </contour>
    <contour>
      <point x="858" y="-10" type="move" name="blwm.u"/>
    </contour>
    <component base="dvTTA" xOffset="548"/>
    <component base="dvJ"/>
  </outline>
</glyph>
<glyph name="dvKH_R" format="1">
  <advance width="672"/>
  <outline>
    <contour>
      <point x="739" y="181" type="line"/>
      <point x="716" y="129"/>
      <point x="638" y="7"/>
      <point x="540" y="-88" type="curve"/>
      <point x="460" y="-33" type="line"/>
      <point x="491" y="-7"/>
      <point x="527" y="26"/>
      <point x="564" y="63" type="curve"/>
      <point x="507" y="25"/>
      <point x="438" y="0"/>
      <point x="362" y="-1" type="curve" smooth="yes"/>
      <point x="185" y="-4"/>
      <point x="42" y="164"/>
      <point x="37" y="291" type="curve"/>
      <point x="49" y="324"/>
      <point x="65" y="359"/>
      <point x="83" y="380" type="curve" smooth="yes"/>
      <point x="97" y="397"/>
      <point x="139" y="368"/>
      <point x="158" y="349" type="curve" smooth="yes"/>
      <point x="171" y="336"/>
      <point x="171" y="305"/>
      <point x="182" y="273" type="curve"/>
      <point x="294" y="310"/>
      <point x="284" y="432"/>
      <point x="251" y="523" type="curve"/>
      <point x="-15" y="523" type="line"/>
      <point x="-15" y="619" type="line"/>
      <point x="872" y="619" type="line"/>
      <point x="872" y="523" type="line"/>
      <point x="317" y="523" type="line"/>
      <point x="352" y="469"/>
      <point x="371" y="410"/>
      <point x="369" y="354" type="curve"/>
      <point x="424" y="423"/>
      <point x="539" y="486"/>
      <point x="580" y="459" type="curve"/>
      <point x="614" y="435"/>
      <point x="680" y="390"/>
      <point x="717" y="367" type="curve"/>
      <point x="713" y="313" type="line"/>
      <point x="563" y="444"/>
      <point x="389" y="270"/>
      <point x="440" y="211" type="curve" smooth="yes"/>
      <point x="466" y="181"/>
      <point x="587" y="154"/>
      <point x="710" y="315" type="curve"/>
      <point x="734" y="223" type="line"/>
      <point x="732" y="220"/>
      <point x="730" y="218"/>
      <point x="729" y="215" type="curve"/>
    </contour>
    <contour>
      <point x="346" y="260" type="curve"/>
      <point x="320" y="208"/>
      <point x="271" y="166"/>
      <point x="197" y="143" type="curve"/>
      <point x="211" y="97"/>
      <point x="286" y="65"/>
      <point x="351" y="64" type="curve" smooth="yes"/>
      <point x="418" y="63"/>
      <point x="483" y="83"/>
      <point x="538" y="115" type="curve"/>
      <point x="463" y="124"/>
      <point x="390" y="176"/>
    </contour>
  </outline>
</glyph>
<glyph name="dvK_DA" format="1">
  <advance width="1070"/>
  <outline>
    <contour>
      <point x="943" y="662" type="move" name="abvm.bindu"/>
    </contour>
    <contour>
      <point x="738" y="-231" type="move" name="blwm.virama"/>
    </contour>
    <contour>
      <point x="942" y="672" type="move" name="abvm.e"/>
    </contour>
    <contour>
      <point x="958" y="-160" type="move" name="blwm.u"/>
    </contour>
    <component base="dvDA" xOffset="511"/>
  </outline>
</glyph>
<glyph name="dvK_SS" format="1">
  <advance width="603"/>
  <outline>
    <contour>
      <point x="559" y="-146" type="curve"/>
      <point x="598" y="-119" type="line"/>
      <point x="480" y="27" type="line"/>
      <point x="536" y="77" type="line" smooth="yes"/>
      <point x="568" y="105"/>
      <point x="549" y="153"/>
      <point x="522" y="185" type="curve" smooth="yes"/>
      <point x="490" y="223"/>
      <point x="455" y="251"/>
      <point x="408" y="221" type="curve" smooth="yes"/>
      <point x="390" y="210"/>
      <point x="353" y="182"/>
      <point x="338" y="152" type="curve" smooth="yes"/>
      <point x="331" y="138"/>
      <point x="354" y="111"/>
    </contour>
    <contour>
      <point x="466" y="456" type="curve" smooth="yes"/>
      <point x="432" y="515"/>
      <point x="324" y="625"/>
      <point x="299" y="625" type="curve" smooth="yes"/>
      <point x="204" y="625"/>
      <point x="115" y="492"/>
      <point x="145" y="444" type="curve" smooth="yes"/>
      <point x="182" y="385"/>
      <point x="270" y="331"/>
      <point x="357" y="302" type="curve"/>
      <point x="366" y="331" type="line"/>
      <point x="346" y="339"/>
      <point x="306" y="355"/>
      <point x="277" y="378" type="curve" smooth="yes"/>
      <point x="167" y="464"/>
      <point x="303" y="588"/>
      <point x="354" y="530" type="curve" smooth="yes"/>
      <point x="481" y="386"/>
      <point x="22" y="269"/>
      <point x="118" y="137" type="curve" smooth="yes"/>
      <point x="162" y="76"/>
      <point x="170" y="61"/>
      <point x="234" y="9" type="curve" smooth="yes"/>
      <point x="346" y="-83"/>
      <point x="489" y="1"/>
      <point x="547" y="116" type="curve"/>
      <point x="462" y="191" type="line"/>
      <point x="421" y="114"/>
      <point x="298" y="14"/>
      <point x="228" y="89" type="curve" smooth="yes"/>
      <point x="112" y="214"/>
      <point x="532" y="341"/>
    </contour>
    <contour>
      <point x="336" y="311" type="line"/>
      <point x="445" y="258"/>
      <point x="599" y="245"/>
      <point x="689" y="327" type="curve"/>
      <point x="688" y="328"/>
      <point x="635" y="415"/>
      <point x="634" y="414" type="curve" smooth="yes"/>
      <point x="611" y="359"/>
      <point x="458" y="296"/>
      <point x="344" y="339" type="curve"/>
    </contour>
  </outline>
</glyph>
<glyph name="dvK_S_DDA" format="1">
  <advance width="1605"/>
  <outline>
    <contour>
      <point x="1478" y="662" type="move" name="abvm.bindu"/>
    </contour>
    <contour>
      <point x="1293" y="0" type="move" name="blwm.virama"/>
    </contour>
    <contour>
      <point x="1491" y="672" type="move" name="abvm.e"/>
    </contour>
    <contour>
      <point x="1325" y="-10" type="move" name="blwm.u"/>
    </contour>
    <component base="dvDDA" xOffset="1049"/>
  </outline>
</glyph>
<glyph name="dvL_BA" format="1">
  <advance width="1022"/>
  <outline>
    <contour>
      <point x="587" y="296" type="line"/>
      <point x="484" y="317"/>
      <point x="382" y="216"/>
      <point x="336" y="135" type="curve"/>
      <point x="259" y="200" type="line"/>
      <point x="281" y="259"/>
      <point x="433" y="411"/>
      <point x="555" y="371" type="curve"/>
    </contour>
    <contour>
      <point x="-10" y="619" type="line"/>
      <point x="586" y="619" type="line"/>
      <point x="586" y="523" type="line"/>
      <point x="-10" y="523" type="line"/>
    </contour>
    <contour>
      <point x="322" y="266" type="line"/>
      <point x="250" y="316"/>
      <point x="194" y="319"/>
      <point x="159" y="285" type="curve" smooth="yes"/>
      <point x="99" y="226"/>
      <point x="175" y="65"/>
      <point x="285" y="-23" type="curve"/>
      <point x="258" y="-57" type="line"/>
      <point x="159" y="30"/>
      <point x="24" y="190"/>
      <point x="16" y="253" type="curve" smooth="yes"/>
      <point x="8" y="319"/>
      <point x="154" y="432"/>
      <point x="209" y="414" type="curve" smooth="yes"/>
      <point x="249" y="401"/>
      <point x="314" y="336"/>
      <point x="350" y="298" type="curve"/>
    </contour>
    <component base="dvBA" xOffset="437"/>
  </outline>
</glyph>
<glyph name="dvL_DA" format="1">
  <advance width="982"/>
  <outline>
    <contour>
      <point x="850" y="619" type="move" name="abvm.bindu"/>
    </contour>
    <contour>
      <point x="964" y="-67" type="move" name="blwm.virama"/>
    </contour>
    <contour>
      <point x="843" y="619" type="move" name="abvm.e"/>
    </contour>
    <contour>
      <point x="972" y="-79" type="move" name="blwm.u"/>
    </contour>
    <component base="dvL" xOffset="2"/>
    <component base="dvDA" xOffset="423"/>
  </outline>
</glyph>
<glyph name="dvL_DDA" format="1">
  <advance width="1059"/>
  <outline>
    <contour>
      <point x="864" y="619" type="move" name="abvm.bindu"/>
    </contour>
    <contour>
      <point x="680" y="0" type="move" name="blwm.virama"/>
    </contour>
    <contour>
      <point x="851" y="619" type="move" name="abvm.e"/>
    </contour>
    <contour>
      <point x="712" y="-10" type="move" name="blwm.u"/>
    </contour>
    <contour>
      <point x="550" y="330" type="line"/>
      <point x="490" y="314"/>
      <point x="405" y="216"/>
      <point x="359" y="135" type="curve"/>
      <point x="282" y="200" type="line"/>
      <point x="293" y="264"/>
      <point x="435" y="384"/>
      <point x="535" y="398" type="curve"/>
    </contour>
    <contour>
      <point x="-5" y="619" type="line"/>
      <point x="591" y="619" type="line"/>
      <point x="591" y="523" type="line"/>
      <point x="-5" y="523" type="line"/>
    </contour>
    <contour>
      <point x="327" y="266" type="line"/>
      <point x="255" y="316"/>
      <point x="199" y="319"/>
      <point x="164" y="285" type="curve" smooth="yes"/>
      <point x="104" y="226"/>
      <point x="180" y="65"/>
      <point x="290" y="-23" type="curve"/>
      <point x="263" y="-57" type="line"/>
      <point x="164" y="30"/>
      <point x="29" y="190"/>
      <point x="21" y="253" type="curve" smooth="yes"/>
      <point x="13" y="319"/>
      <point x="159" y="432"/>
      <point x="214" y="414" type="curve" smooth="yes"/>
      <point x="254" y="401"/>
      <point x="319" y="336"/>
      <point x="355" y="298" type="curve"/>
    </contour>
    <component base="dvDDA" xOffset="435"/>
  </outline>
</glyph>
<glyph name="dvL_DDHA" format="1">
  <advance width="1014"/>
  <outline>
    <contour>
      <point x="911" y="662" type="move" name="abvm.bindu"/>
    </contour>
    <contour>
      <point x="694" y="0" type="move" name="blwm.virama"/>
    </contour>
    <contour>
      <point x="938" y="672" type="move" name="abvm.e"/>
    </contour>
    <contour>
      <point x="694" y="-10" type="move" name="blwm.u"/>
    </contour>
    <component base="dvL" xOffset="8"/>
    <component base="dvDDHA" xOffset="411"/>
  </outline>
</glyph>
<glyph name="dvL_LA" format="1">
  <advance width="1170"/>
  <outline>
    <contour>
      <point x="563" y="237" type="line"/>
      <point x="555" y="246"/>
      <point x="506" y="303"/>
      <point x="475" y="293" type="curve" smooth="yes"/>
      <point x="440" y="282"/>
      <point x="394" y="200"/>
      <point x="357" y="135" type="curve"/>
      <point x="280" y="200" type="line"/>
      <point x="287" y="222"/>
      <point x="303" y="250"/>
      <point x="326" y="279" type="curve"/>
      <point x="152" y="400"/>
      <point x="85" y="219"/>
      <point x="177" y="105" type="curve" smooth="yes"/>
      <point x="205" y="69"/>
      <point x="241" y="24"/>
      <point x="291" y="-23" type="curve"/>
      <point x="264" y="-57" type="line"/>
      <point x="165" y="30"/>
      <point x="30" y="190"/>
      <point x="22" y="253" type="curve" smooth="yes"/>
      <point x="14" y="319"/>
      <point x="160" y="432"/>
      <point x="215" y="414" type="curve" smooth="yes"/>
      <point x="252" y="402"/>
      <point x="312" y="344"/>
      <point x="349" y="305" type="curve"/>
      <point x="382" y="341"/>
      <point x="424" y="375"/>
      <point x="467" y="394" type="curve" smooth="yes"/>
      <point x="488" y="403"/>
      <point x="594" y="268"/>
      <point x="600" y="255" type="curve"/>
    </contour>
    <contour>
      <point x="-13" y="619" type="line"/>
      <point x="543" y="619" type="line"/>
      <point x="543" y="523" type="line"/>
      <point x="-13" y="523" type="line"/>
    </contour>
    <component base="dvLA" xOffset="497"/>
  </outline>
</glyph>
<glyph name="dvL_L_YA" format="1">
  <advance width="1701"/>
  <outline>
    <contour>
      <point x="1092" y="237" type="line"/>
      <point x="1084" y="246"/>
      <point x="1035" y="303"/>
      <point x="1004" y="293" type="curve" smooth="yes"/>
      <point x="969" y="282"/>
      <point x="923" y="200"/>
      <point x="886" y="135" type="curve"/>
      <point x="809" y="200" type="line"/>
      <point x="827" y="258"/>
      <point x="909" y="355"/>
      <point x="996" y="394" type="curve" smooth="yes"/>
      <point x="1017" y="403"/>
      <point x="1123" y="268"/>
      <point x="1129" y="255" type="curve"/>
    </contour>
    <contour>
      <point x="516" y="619" type="line"/>
      <point x="1072" y="619" type="line"/>
      <point x="1072" y="523" type="line"/>
      <point x="516" y="523" type="line"/>
    </contour>
    <contour>
      <point x="570" y="237" type="line"/>
      <point x="562" y="246"/>
      <point x="513" y="303"/>
      <point x="482" y="293" type="curve" smooth="yes"/>
      <point x="447" y="282"/>
      <point x="401" y="200"/>
      <point x="364" y="135" type="curve"/>
      <point x="287" y="200" type="line"/>
      <point x="305" y="258"/>
      <point x="387" y="355"/>
      <point x="474" y="394" type="curve" smooth="yes"/>
      <point x="495" y="403"/>
      <point x="601" y="268"/>
      <point x="607" y="255" type="curve"/>
    </contour>
    <contour>
      <point x="-6" y="619" type="line"/>
      <point x="550" y="619" type="line"/>
      <point x="550" y="523" type="line"/>
      <point x="-6" y="523" type="line"/>
    </contour>
    <contour>
      <point x="852" y="266" type="line"/>
      <point x="780" y="316"/>
      <point x="724" y="319"/>
      <point x="689" y="285" type="curve" smooth="yes"/>
      <point x="629" y="226"/>
      <point x="705" y="65"/>
      <point x="815" y="-23" type="curve"/>
      <point x="788" y="-57" type="line"/>
      <point x="689" y="30"/>
      <point x="554" y="190"/>
      <point x="546" y="253" type="curve" smooth="yes"/>
      <point x="538" y="319"/>
      <point x="684" y="432"/>
      <point x="739" y="414" type="curve" smooth="yes"/>
      <point x="779" y="401"/>
      <point x="844" y="336"/>
      <point x="880" y="298" type="curve"/>
    </contour>
    <contour>
      <point x="326" y="266" type="line"/>
      <point x="254" y="316"/>
      <point x="198" y="319"/>
      <point x="163" y="285" type="curve" smooth="yes"/>
      <point x="103" y="226"/>
      <point x="179" y="65"/>
      <point x="289" y="-23" type="curve"/>
      <point x="262" y="-57" type="line"/>
      <point x="163" y="30"/>
      <point x="28" y="190"/>
      <point x="20" y="253" type="curve" smooth="yes"/>
      <point x="12" y="319"/>
      <point x="158" y="432"/>
      <point x="213" y="414" type="curve" smooth="yes"/>
      <point x="253" y="401"/>
      <point x="318" y="336"/>
      <point x="354" y="298" type="curve"/>
    </contour>
    <component base="dvYA" xOffset="1027"/>
  </outline>
</glyph>
<glyph name="dvL_R" format="1">
  <advance width="510"/>
  <outline>
    <contour>
      <point x="567" y="330" type="line"/>
      <point x="507" y="314"/>
      <point x="398" y="225"/>
      <point x="352" y="144" type="curve"/>
      <point x="275" y="209" type="line"/>
      <point x="279" y="231"/>
      <point x="299" y="260"/>
      <point x="329" y="289" type="curve"/>
      <point x="165" y="389"/>
      <point x="87" y="215"/>
      <point x="176" y="105" type="curve" smooth="yes"/>
      <point x="204" y="69"/>
      <point x="240" y="24"/>
      <point x="290" y="-23" type="curve"/>
      <point x="263" y="-57" type="line"/>
      <point x="164" y="30"/>
      <point x="29" y="190"/>
      <point x="21" y="253" type="curve" smooth="yes"/>
      <point x="13" y="319"/>
      <point x="159" y="432"/>
      <point x="214" y="414" type="curve" smooth="yes"/>
      <point x="248" y="403"/>
      <point x="317" y="353"/>
      <point x="358" y="315" type="curve"/>
      <point x="411" y="359"/>
      <point x="480" y="397"/>
      <point x="535" y="405" type="curve"/>
    </contour>
    <contour>
      <point x="-4" y="619" type="line"/>
      <point x="723" y="619" type="line"/>
      <point x="723" y="523" type="line"/>
      <point x="-4" y="523" type="line"/>
    </contour>
    <contour>
      <point x="578" y="156" type="line"/>
      <point x="557" y="100"/>
      <point x="486" y="4"/>
      <point x="402" y="-56" type="curve"/>
      <point x="318" y="10" type="line"/>
      <point x="425" y="70"/>
      <point x="485" y="132"/>
      <point x="547" y="205" type="curve"/>
    </contour>
  </outline>
</glyph>
<glyph name="dvL_SA" format="1">
  <advance width="1173"/>
  <outline>
    <contour>
      <point x="557" y="310" type="line"/>
      <point x="497" y="294"/>
      <point x="412" y="216"/>
      <point x="366" y="135" type="curve"/>
      <point x="289" y="200" type="line"/>
      <point x="300" y="264"/>
      <point x="425" y="371"/>
      <point x="525" y="385" type="curve"/>
    </contour>
    <contour>
      <point x="-4" y="619" type="line"/>
      <point x="552" y="619" type="line"/>
      <point x="552" y="523" type="line"/>
      <point x="-4" y="523" type="line"/>
    </contour>
    <contour>
      <point x="336" y="266" type="line"/>
      <point x="264" y="316"/>
      <point x="208" y="319"/>
      <point x="173" y="285" type="curve" smooth="yes"/>
      <point x="113" y="226"/>
      <point x="189" y="65"/>
      <point x="299" y="-23" type="curve"/>
      <point x="272" y="-57" type="line"/>
      <point x="173" y="30"/>
      <point x="38" y="190"/>
      <point x="30" y="253" type="curve" smooth="yes"/>
      <point x="22" y="319"/>
      <point x="168" y="432"/>
      <point x="223" y="414" type="curve" smooth="yes"/>
      <point x="263" y="401"/>
      <point x="328" y="336"/>
      <point x="364" y="298" type="curve"/>
    </contour>
    <component base="dvSA" xOffset="453"/>
  </outline>
</glyph>
<glyph name="dvL_V_DDA" format="1">
  <advance width="1321"/>
  <outline>
    <contour>
      <point x="1117" y="625" type="move" name="abvm.bindu"/>
    </contour>
    <contour>
      <point x="1051" y="-56" type="move" name="blwm.virama"/>
    </contour>
    <contour>
      <point x="1099" y="619" type="move" name="abvm.e"/>
    </contour>
    <contour>
      <point x="1039" y="-29" type="move" name="blwm.u"/>
    </contour>
    <contour>
      <point x="371" y="619" type="line"/>
      <point x="1341" y="619" type="line"/>
      <point x="1341" y="523" type="line"/>
      <point x="1155" y="523" type="line"/>
      <point x="1155" y="389" type="line"/>
      <point x="934" y="389" type="line" smooth="yes"/>
      <point x="888" y="389"/>
      <point x="856" y="243"/>
      <point x="942" y="266" type="curve" smooth="yes"/>
      <point x="988" y="278"/>
      <point x="1146" y="331"/>
      <point x="1160" y="319" type="curve" smooth="yes"/>
      <point x="1208" y="279"/>
      <point x="1253" y="220"/>
      <point x="1282" y="175" type="curve" smooth="yes"/>
      <point x="1312" y="129"/>
      <point x="1247" y="-20"/>
      <point x="1045" y="-20" type="curve" smooth="yes"/>
      <point x="938" y="-20"/>
      <point x="848" y="53"/>
      <point x="789" y="117" type="curve"/>
      <point x="817" y="149" type="line"/>
      <point x="866" y="110"/>
      <point x="940" y="67"/>
      <point x="1008" y="67" type="curve" smooth="yes"/>
      <point x="1137" y="67"/>
      <point x="1245" y="165"/>
      <point x="1192" y="217" type="curve" smooth="yes"/>
      <point x="1144" y="265"/>
      <point x="987" y="123"/>
      <point x="933" y="166" type="curve" smooth="yes"/>
      <point x="898" y="194"/>
      <point x="860" y="226"/>
      <point x="826" y="256" type="curve"/>
      <point x="803" y="214"/>
      <point x="732" y="103"/>
      <point x="649" y="103" type="curve" smooth="yes"/>
      <point x="543" y="103"/>
      <point x="470" y="191"/>
      <point x="433" y="263" type="curve" smooth="yes"/>
      <point x="388" y="348"/>
      <point x="607" y="500"/>
      <point x="666" y="460" type="curve" smooth="yes"/>
      <point x="694" y="440"/>
      <point x="746" y="405"/>
      <point x="783" y="381" type="curve"/>
      <point x="798" y="423"/>
      <point x="829" y="464"/>
      <point x="860" y="466" type="curve" smooth="yes"/>
      <point x="1043" y="477" type="line"/>
      <point x="1043" y="523" type="line"/>
      <point x="371" y="523" type="line"/>
    </contour>
    <contour>
      <point x="524" y="211" type="curve" smooth="yes"/>
      <point x="549" y="185"/>
      <point x="683" y="164"/>
      <point x="787" y="294" type="curve"/>
      <point x="778" y="304"/>
      <point x="775" y="318"/>
      <point x="774" y="333" type="curve"/>
      <point x="630" y="425"/>
      <point x="471" y="264"/>
    </contour>
    <component base="dvL" xOffset="14"/>
  </outline>
</glyph>
<glyph name="dvMA" format="1">
  <advance width="687"/>
  <outline>
    <contour>
      <point x="-7" y="523" type="line"/>
      <point x="174" y="523" type="line"/>
      <point x="174" y="303" type="line"/>
      <point x="89" y="303" type="line" smooth="yes"/>
      <point x="32" y="303"/>
      <point x="-12" y="210"/>
      <point x="44" y="161" type="curve" smooth="yes"/>
      <point x="104" y="110"/>
      <point x="105" y="111"/>
      <point x="142" y="79" type="curve" smooth="yes"/>
      <point x="205" y="23"/>
      <point x="298" y="73"/>
      <point x="298" y="166" type="curve" smooth="yes"/>
      <point x="298" y="206" type="line"/>
      <point x="504" y="206" type="line"/>
      <point x="504" y="0" type="line"/>
      <point x="628" y="-56" type="line"/>
      <point x="628" y="523" type="line"/>
      <point x="703" y="523" type="line"/>
      <point x="703" y="619" type="line"/>
      <point x="-7" y="619" type="line"/>
    </contour>
    <contour>
      <point x="298" y="523" type="line"/>
      <point x="504" y="523" type="line"/>
      <point x="504" y="303" type="line"/>
      <point x="298" y="303" type="line"/>
    </contour>
  </outline>
</glyph>
<glyph name="dvM_B_RA" format="1">
  <advance width="961"/>
  <outline>
    <contour>
      <point x="835" y="138" type="line"/>
      <point x="814" y="82"/>
      <point x="723" y="-10"/>
      <point x="630" y="-64" type="curve"/>
      <point x="546" y="2" type="line"/>
      <point x="649" y="44"/>
      <point x="745" y="111"/>
      <point x="807" y="184" type="curve"/>
    </contour>
    <component base="dvM"/>
    <component base="dvBA" xOffset="372"/>
  </outline>
</glyph>
<glyph name="dvNGA" format="1">
  <advance width="764"/>
  <outline>
    <contour>
      <point x="419" y="662" type="move" name="abvm.bindu"/>
    </contour>
    <contour>
      <point x="252" y="0" type="move" name="blwm.virama"/>
    </contour>
    <contour>
      <point x="419" y="672" type="move" name="abvm.e"/>
    </contour>
    <contour>
      <point x="252" y="-10" type="move" name="blwm.u"/>
    </contour>
    <contour>
      <point x="-4" y="522" type="line"/>
      <point x="337" y="522" type="line"/>
      <point x="337" y="477" type="line"/>
      <point x="154" y="466" type="line"/>
      <point x="100" y="462"/>
      <point x="41" y="338"/>
      <point x="82" y="293" type="curve" smooth="yes"/>
      <point x="120" y="253"/>
      <point x="178" y="206"/>
      <point x="227" y="166" type="curve" smooth="yes"/>
      <point x="281" y="123"/>
      <point x="438" y="265"/>
      <point x="486" y="217" type="curve" smooth="yes"/>
      <point x="539" y="165"/>
      <point x="431" y="67"/>
      <point x="302" y="67" type="curve" smooth="yes"/>
      <point x="174" y="67"/>
      <point x="60" y="195"/>
      <point x="33" y="227" type="curve"/>
      <point x="13" y="208" type="line"/>
      <point x="34" y="175"/>
      <point x="164" y="-20"/>
      <point x="339" y="-20" type="curve" smooth="yes"/>
      <point x="541" y="-20"/>
      <point x="606" y="129"/>
      <point x="576" y="175" type="curve" smooth="yes"/>
      <point x="547" y="220"/>
      <point x="502" y="279"/>
      <point x="454" y="319" type="curve" smooth="yes"/>
      <point x="440" y="331"/>
      <point x="282" y="278"/>
      <point x="236" y="266" type="curve" smooth="yes"/>
      <point x="150" y="243"/>
      <point x="182" y="389"/>
      <point x="228" y="389" type="curve" smooth="yes"/>
      <point x="449" y="389" type="line"/>
      <point x="449" y="522" type="line"/>
      <point x="778" y="522" type="line"/>
      <point x="778" y="619" type="line"/>
      <point x="-4" y="619" type="line"/>
    </contour>
    <contour>
      <point x="638" y="404" type="curve" smooth="yes"/>
      <point x="672" y="404"/>
      <point x="703" y="378"/>
      <point x="703" y="340" type="curve" smooth="yes"/>
      <point x="703" y="300"/>
      <point x="671" y="275"/>
      <point x="638" y="275" type="curve" smooth="yes"/>
      <point x="603" y="275"/>
      <point x="572" y="300"/>
      <point x="572" y="340" type="curve" smooth="yes"/>
      <point x="572" y="378"/>
      <point x="603" y="404"/>
    </contour>
  </outline>
</glyph>
<glyph name="dvNY_CA" format="1">
  <advance width="1222"/>
  <outline>
    <contour>
      <point x="441" y="235" type="line"/>
      <point x="542" y="214"/>
      <point x="605" y="225"/>
      <point x="628" y="280" type="curve" smooth="yes"/>
      <point x="629" y="281"/>
      <point x="682" y="194"/>
      <point x="683" y="193" type="curve"/>
      <point x="593" y="111"/>
      <point x="544" y="128"/>
      <point x="455" y="218" type="curve"/>
    </contour>
    <contour>
      <point x="-44" y="619" type="line"/>
      <point x="675" y="619" type="line"/>
      <point x="675" y="522" type="line"/>
      <point x="-44" y="522" type="line"/>
    </contour>
    <contour>
      <point x="295" y="417" type="curve" smooth="yes"/>
      <point x="350" y="414"/>
      <point x="421" y="325"/>
      <point x="469" y="279" type="curve"/>
      <point x="538" y="174"/>
      <point x="466" y="90"/>
      <point x="343" y="74" type="curve" smooth="yes"/>
      <point x="204" y="56"/>
      <point x="104" y="161"/>
      <point x="10" y="275" type="curve"/>
      <point x="43" y="301" type="line"/>
      <point x="186" y="126"/>
      <point x="358" y="122"/>
      <point x="399" y="231" type="curve" smooth="yes"/>
      <point x="421" y="288"/>
      <point x="367" y="355"/>
      <point x="297" y="318" type="curve" smooth="yes"/>
      <point x="212" y="273" type="line"/>
      <point x="132" y="347" type="line"/>
      <point x="189" y="381"/>
      <point x="263" y="419"/>
    </contour>
    <component base="dvCA" xOffset="451"/>
  </outline>
</glyph>
<glyph name="dvN_BH_YA" format="1">
  <advance width="1455"/>
  <outline>
    <contour>
      <point x="590" y="308" type="line"/>
      <point x="343" y="311" type="line"/>
      <point x="445" y="169"/>
      <point x="274" y="73"/>
      <point x="229" y="111" type="curve" smooth="yes"/>
      <point x="181" y="152"/>
      <point x="145" y="180"/>
      <point x="103" y="219" type="curve" smooth="yes"/>
      <point x="43" y="275"/>
      <point x="61" y="384"/>
      <point x="128" y="405" type="curve" smooth="yes"/>
      <point x="142" y="409"/>
      <point x="103" y="406"/>
      <point x="590" y="405" type="curve"/>
    </contour>
    <contour>
      <point x="-17" y="619" type="line"/>
      <point x="475" y="619" type="line"/>
      <point x="475" y="523" type="line"/>
      <point x="-17" y="523" type="line"/>
    </contour>
    <contour>
      <point x="709" y="619" type="line"/>
      <point x="1036" y="619" type="line"/>
      <point x="1036" y="523" type="line"/>
      <point x="748" y="523" type="line"/>
    </contour>
    <contour>
      <point x="286" y="312" type="curve"/>
      <point x="268" y="312" type="line" smooth="yes"/>
      <point x="5" y="315"/>
      <point x="289" y="48"/>
    </contour>
    <component base="dvBH" xOffset="365"/>
    <component base="dvYA" xOffset="782"/>
  </outline>
</glyph>
<glyph name="dvN_CHA" format="1">
  <advance width="1076"/>
  <outline>
    <contour>
      <point x="875" y="662" type="move" name="abvm.bindu"/>
    </contour>
    <contour>
      <point x="647" y="0" type="move" name="blwm.virama"/>
    </contour>
    <contour>
      <point x="922" y="672" type="move" name="abvm.e"/>
    </contour>
    <contour>
      <point x="697" y="-10" type="move" name="blwm.u"/>
    </contour>
    <contour>
      <point x="578" y="308" type="line"/>
      <point x="331" y="311" type="line"/>
      <point x="433" y="169"/>
      <point x="262" y="73"/>
      <point x="217" y="111" type="curve" smooth="yes"/>
      <point x="169" y="152"/>
      <point x="133" y="180"/>
      <point x="91" y="219" type="curve" smooth="yes"/>
      <point x="31" y="275"/>
      <point x="49" y="384"/>
      <point x="116" y="405" type="curve" smooth="yes"/>
      <point x="130" y="409"/>
      <point x="281" y="406"/>
      <point x="508" y="405" type="curve"/>
    </contour>
    <contour>
      <point x="-29" y="619" type="line"/>
      <point x="658" y="619" type="line"/>
      <point x="658" y="523" type="line"/>
      <point x="-29" y="523" type="line"/>
    </contour>
    <contour>
      <point x="274" y="312" type="curve"/>
      <point x="256" y="312" type="line" smooth="yes"/>
      <point x="-6" y="315"/>
      <point x="277" y="48"/>
    </contour>
    <component base="dvCHA" xOffset="315"/>
  </outline>
</glyph>
<glyph name="dvN_DH_VA" format="1">
  <advance width="1416"/>
  <outline>
    <contour>
      <point x="586" y="308" type="line"/>
      <point x="339" y="311" type="line"/>
      <point x="441" y="169"/>
      <point x="270" y="73"/>
      <point x="225" y="111" type="curve" smooth="yes"/>
      <point x="177" y="152"/>
      <point x="141" y="180"/>
      <point x="99" y="219" type="curve" smooth="yes"/>
      <point x="39" y="275"/>
      <point x="57" y="384"/>
      <point x="124" y="405" type="curve" smooth="yes"/>
      <point x="138" y="409"/>
      <point x="39" y="406"/>
      <point x="526" y="405" type="curve"/>
    </contour>
    <contour>
      <point x="-21" y="619" type="line"/>
      <point x="606" y="619" type="line"/>
      <point x="546" y="523" type="line"/>
      <point x="-21" y="523" type="line"/>
    </contour>
    <contour>
      <point x="282" y="312" type="curve"/>
      <point x="264" y="312" type="line" smooth="yes"/>
      <point x="1" y="315"/>
      <point x="285" y="48"/>
    </contour>
    <component base="dvDH" xOffset="408"/>
    <component base="dvVA" xOffset="831"/>
  </outline>
</glyph>
<glyph name="dvN_PH_RA" format="1">
  <advance width="1297"/>
  <outline>
    <contour>
      <point x="895" y="619" type="move" name="abvm.bindu"/>
    </contour>
    <contour>
      <point x="876" y="-13" type="move" name="blwm.virama"/>
    </contour>
    <contour>
      <point x="912" y="619" type="move" name="abvm.e"/>
    </contour>
    <contour>
      <point x="888" y="-24" type="move" name="blwm.u"/>
    </contour>
    <contour>
      <point x="932" y="233" type="line"/>
      <point x="901" y="183"/>
      <point x="730" y="27"/>
      <point x="628" y="-56" type="curve"/>
      <point x="544" y="10" type="line"/>
      <point x="643" y="76"/>
      <point x="847" y="205"/>
      <point x="909" y="278" type="curve"/>
    </contour>
    <component base="dvPHA" xOffset="426"/>
    <component base="dvN" xOffset="6"/>
  </outline>
</glyph>
<glyph name="dvN_S_YA" format="1">
  <advance width="1642"/>
  <outline>
    <contour>
      <point x="794" y="532" type="line"/>
      <point x="893" y="390"/>
      <point x="873" y="224"/>
      <point x="697" y="166" type="curve"/>
      <point x="723" y="116"/>
      <point x="836" y="26"/>
      <point x="902" y="-19" type="curve"/>
      <point x="874" y="-56" type="line"/>
      <point x="753" y="20"/>
      <point x="579" y="122"/>
      <point x="519" y="290" type="curve"/>
      <point x="531" y="324"/>
      <point x="547" y="361"/>
      <point x="565" y="382" type="curve" smooth="yes"/>
      <point x="579" y="398"/>
      <point x="621" y="370"/>
      <point x="641" y="351" type="curve"/>
      <point x="653" y="338"/>
      <point x="653" y="306"/>
      <point x="664" y="269" type="curve"/>
      <point x="780" y="307"/>
      <point x="765" y="441"/>
      <point x="729" y="532" type="curve"/>
    </contour>
    <contour>
      <point x="801" y="289" type="line"/>
      <point x="825" y="260"/>
      <point x="923" y="242"/>
      <point x="997" y="297" type="curve"/>
      <point x="1063" y="213" type="line"/>
      <point x="1025" y="192"/>
      <point x="975" y="171"/>
      <point x="935" y="171" type="curve" smooth="yes"/>
      <point x="891" y="171"/>
      <point x="786" y="248"/>
      <point x="786" y="248" type="curve"/>
    </contour>
    <contour>
      <point x="492" y="619" type="line"/>
      <point x="1140" y="619" type="line"/>
      <point x="1140" y="523" type="line"/>
      <point x="492" y="523" type="line"/>
    </contour>
    <contour>
      <point x="580" y="288" type="line"/>
      <point x="258" y="292" type="line" smooth="yes"/>
      <point x="-6" y="295"/>
      <point x="282" y="25"/>
      <point x="276" y="296" type="curve"/>
      <point x="328" y="298" type="line"/>
      <point x="440" y="152"/>
      <point x="265" y="53"/>
      <point x="219" y="91" type="curve" smooth="yes"/>
      <point x="171" y="132"/>
      <point x="135" y="160"/>
      <point x="93" y="199" type="curve" smooth="yes"/>
      <point x="33" y="255"/>
      <point x="51" y="364"/>
      <point x="118" y="385" type="curve" smooth="yes"/>
      <point x="132" y="389"/>
      <point x="93" y="386"/>
      <point x="580" y="385" type="curve"/>
    </contour>
    <contour>
      <point x="-17" y="619" type="line"/>
      <point x="670" y="619" type="line"/>
      <point x="670" y="523" type="line"/>
      <point x="-17" y="523" type="line"/>
    </contour>
    <component base="dvYA" xOffset="963"/>
  </outline>
</glyph>
<glyph name="dvN_TH_YA" format="1">
  <advance width="1451"/>
  <outline>
    <contour>
      <point x="584" y="308" type="line"/>
      <point x="262" y="312" type="line" smooth="yes"/>
      <point x="-2" y="315"/>
      <point x="286" y="45"/>
      <point x="280" y="316" type="curve"/>
      <point x="332" y="318" type="line"/>
      <point x="444" y="172"/>
      <point x="269" y="73"/>
      <point x="223" y="111" type="curve" smooth="yes"/>
      <point x="175" y="152"/>
      <point x="139" y="180"/>
      <point x="97" y="219" type="curve" smooth="yes"/>
      <point x="37" y="275"/>
      <point x="55" y="384"/>
      <point x="122" y="405" type="curve" smooth="yes"/>
      <point x="136" y="409"/>
      <point x="97" y="406"/>
      <point x="584" y="405" type="curve"/>
    </contour>
    <contour>
      <point x="-23" y="619" type="line"/>
      <point x="534" y="619" type="line"/>
      <point x="534" y="523" type="line"/>
      <point x="-23" y="523" type="line"/>
    </contour>
    <component base="dvTH_YA" xOffset="400"/>
  </outline>
</glyph>
<glyph name="dvOcandra.init" format="1">
  <advance width="1044"/>
  <outline>
    <contour>
      <point x="894" y="766" type="move" name="abvm.bindu"/>
    </contour>
    <component base="dvAA.init"/>
    <component base="dvmEcandra" xOffset="986"/>
  </outline>
</glyph>
<glyph name="dvOm" format="1">
  <advance width="1099"/>
  <outline>
    <contour>
      <point x="534" y="479" type="curve" smooth="yes"/>
      <point x="562" y="452"/>
      <point x="548" y="386"/>
      <point x="496" y="332" type="curve"/>
      <point x="574" y="315"/>
      <point x="615" y="355"/>
      <point x="667" y="405" type="curve" smooth="yes"/>
      <point x="714" y="449"/>
      <point x="758" y="504"/>
      <point x="809" y="502" type="curve" smooth="yes"/>
      <point x="850" y="500"/>
      <point x="1017" y="351"/>
      <point x="1052" y="313" type="curve" smooth="yes"/>
      <point x="1073" y="290"/>
      <point x="1043" y="135"/>
      <point x="904" y="95" type="curve" smooth="yes"/>
      <point x="862" y="83"/>
      <point x="800" y="119"/>
      <point x="716" y="179" type="curve"/>
      <point x="734" y="200" type="line"/>
      <point x="919" y="126"/>
      <point x="1006" y="300"/>
      <point x="914" y="376" type="curve" smooth="yes"/>
      <point x="826" y="448"/>
      <point x="756" y="308"/>
      <point x="682" y="268" type="curve" smooth="yes"/>
      <point x="657" y="254"/>
      <point x="562" y="260"/>
      <point x="477" y="314" type="curve"/>
      <point x="465" y="305" type="line"/>
      <point x="511" y="274"/>
      <point x="567" y="238"/>
      <point x="593" y="166" type="curve" smooth="yes"/>
      <point x="630" y="63"/>
      <point x="354" y="-56"/>
      <point x="277" y="-4" type="curve" smooth="yes"/>
      <point x="204" y="45"/>
      <point x="140" y="111"/>
      <point x="27" y="239" type="curve"/>
      <point x="48" y="264" type="line"/>
      <point x="121" y="193"/>
      <point x="269" y="38"/>
      <point x="394" y="108" type="curve" smooth="yes"/>
      <point x="455" y="142"/>
      <point x="492" y="218"/>
      <point x="427" y="282" type="curve"/>
      <point x="391" y="264"/>
      <point x="346" y="252"/>
      <point x="295" y="253" type="curve"/>
      <point x="241" y="346" type="line"/>
      <point x="431" y="347"/>
      <point x="468" y="466"/>
      <point x="414" y="523" type="curve" smooth="yes"/>
      <point x="358" y="582"/>
      <point x="265" y="520"/>
      <point x="205" y="450" type="curve"/>
      <point x="108" y="517" type="line"/>
      <point x="176" y="583"/>
      <point x="289" y="649"/>
      <point x="331" y="625" type="curve" smooth="yes"/>
      <point x="392" y="590"/>
      <point x="474" y="534"/>
    </contour>
    <component base="dvAnusvara" xOffset="655" yOffset="-62"/>
    <component base="dvmEcandra" xOffset="691" yOffset="-164"/>
  </outline>
</glyph>
<glyph name="dvPH_SHA" format="1">
  <advance width="1366"/>
  <outline>
    <contour>
      <point x="480" y="345" type="line"/>
      <point x="513" y="375"/>
      <point x="566" y="428"/>
      <point x="628" y="426" type="curve" smooth="yes"/>
      <point x="669" y="424"/>
      <point x="720" y="340"/>
      <point x="761" y="255" type="curve"/>
      <point x="699" y="213" type="line"/>
      <point x="629" y="353"/>
      <point x="525" y="287"/>
      <point x="486" y="205" type="curve"/>
    </contour>
    <contour>
      <point x="402" y="538" type="line"/>
      <point x="526" y="538" type="line"/>
      <point x="526" y="-55" type="line"/>
      <point x="402" y="1" type="line"/>
    </contour>
    <contour>
      <point x="-16" y="619" type="line"/>
      <point x="853" y="619" type="line"/>
      <point x="853" y="522" type="line"/>
      <point x="-16" y="522" type="line"/>
    </contour>
    <contour>
      <point x="417" y="325" type="curve"/>
      <point x="417" y="325"/>
      <point x="493" y="247"/>
      <point x="494" y="247" type="curve"/>
      <point x="494" y="247"/>
      <point x="386" y="71"/>
      <point x="284" y="71" type="curve" smooth="yes"/>
      <point x="208" y="71"/>
      <point x="117" y="180"/>
      <point x="53" y="248" type="curve" smooth="yes"/>
      <point x="44" y="258"/>
      <point x="48" y="540"/>
      <point x="48" y="540" type="curve" smooth="yes"/>
      <point x="47" y="540"/>
      <point x="170" y="540"/>
      <point x="170" y="540" type="curve"/>
      <point x="172" y="208" type="line"/>
      <point x="234" y="142"/>
      <point x="384" y="223"/>
    </contour>
    <component base="dvSHA" xOffset="675"/>
  </outline>
</glyph>
<glyph name="dvPH_TTA" format="1">
  <advance width="1224"/>
  <outline>
    <contour>
      <point x="1082" y="662" type="move" name="abvm.bindu"/>
    </contour>
    <contour>
      <point x="912" y="0" type="move" name="blwm.virama"/>
    </contour>
    <contour>
      <point x="1101" y="672" type="move" name="abvm.e"/>
    </contour>
    <contour>
      <point x="971" y="-10" type="move" name="blwm.u"/>
    </contour>
    <component base="dvTTA" xOffset="601"/>
  </outline>
</glyph>
<glyph name="dvPHx_JxA" format="1">
  <advance width="1491"/>
  <outline>
    <contour>
      <point x="490" y="345" type="line"/>
      <point x="523" y="375"/>
      <point x="603" y="434"/>
      <point x="665" y="432" type="curve" smooth="yes"/>
      <point x="706" y="430"/>
      <point x="748" y="376"/>
      <point x="805" y="294" type="curve"/>
      <point x="777" y="273" type="line"/>
      <point x="706" y="377"/>
      <point x="535" y="287"/>
      <point x="496" y="205" type="curve"/>
    </contour>
    <contour>
      <point x="412" y="538" type="line"/>
      <point x="536" y="538" type="line"/>
      <point x="536" y="-55" type="line"/>
      <point x="412" y="1" type="line"/>
    </contour>
    <contour>
      <point x="-6" y="619" type="line"/>
      <point x="883" y="619" type="line"/>
      <point x="883" y="522" type="line"/>
      <point x="-6" y="522" type="line"/>
    </contour>
    <contour>
      <point x="427" y="325" type="curve"/>
      <point x="427" y="325"/>
      <point x="503" y="247"/>
      <point x="504" y="247" type="curve"/>
      <point x="504" y="247"/>
      <point x="396" y="71"/>
      <point x="294" y="71" type="curve" smooth="yes"/>
      <point x="218" y="71"/>
      <point x="127" y="180"/>
      <point x="63" y="248" type="curve" smooth="yes"/>
      <point x="54" y="258"/>
      <point x="58" y="540"/>
      <point x="58" y="540" type="curve" smooth="yes"/>
      <point x="57" y="540"/>
      <point x="180" y="540"/>
      <point x="180" y="540" type="curve"/>
      <point x="182" y="208" type="line"/>
      <point x="244" y="142"/>
      <point x="394" y="223"/>
    </contour>
    <component base="dvJA" xOffset="679"/>
    <component base="dvNukta" xOffset="1241" yOffset="76"/>
    <component base="dvNukta" xOffset="563" yOffset="75"/>
  </outline>
</glyph>
<glyph name="dvPHx_PHxA" format="1">
  <advance width="1540"/>
  <outline>
    <contour>
      <point x="1165" y="619" type="move" name="abvm.bindu"/>
    </contour>
    <contour>
      <point x="1041" y="-128" type="move" name="blwm.virama"/>
    </contour>
    <contour>
      <point x="1152" y="619" type="move" name="abvm.e"/>
    </contour>
    <contour>
      <point x="1142" y="-24" type="move" name="blwm.u"/>
    </contour>
    <component base="dvPHA" xOffset="671"/>
    <component base="dvNukta" xOffset="556" yOffset="75"/>
    <component base="dvNukta" xOffset="1228" yOffset="75"/>
    <component base="dvPH" xOffset="-10"/>
  </outline>
</glyph>
<glyph name="dvP" format="1">
  <advance width="416"/>
  <outline>
    <contour>
      <point x="430" y="325" type="curve"/>
      <point x="430" y="325"/>
      <point x="517" y="235"/>
      <point x="518" y="235" type="curve" smooth="yes"/>
      <point x="518" y="235"/>
      <point x="399" y="71"/>
      <point x="297" y="71" type="curve" smooth="yes"/>
      <point x="221" y="71"/>
      <point x="130" y="180"/>
      <point x="66" y="248" type="curve" smooth="yes"/>
      <point x="58" y="256"/>
      <point x="60" y="467"/>
      <point x="60" y="523" type="curve"/>
      <point x="-3" y="523" type="line"/>
      <point x="-3" y="619" type="line"/>
      <point x="616" y="619" type="line"/>
      <point x="616" y="523" type="line"/>
      <point x="183" y="523" type="line"/>
      <point x="185" y="208" type="line"/>
      <point x="247" y="142"/>
      <point x="397" y="223"/>
    </contour>
  </outline>
</glyph>
<glyph name="dvP_PHA" format="1">
  <advance width="1192"/>
  <outline>
    <contour>
      <point x="795" y="619" type="move" name="abvm.bindu"/>
    </contour>
    <contour>
      <point x="795" y="-21" type="move" name="blwm.virama"/>
    </contour>
    <contour>
      <point x="807" y="619" type="move" name="abvm.e"/>
    </contour>
    <contour>
      <point x="809" y="-29" type="move" name="blwm.u"/>
    </contour>
    <component base="dvPHA" xOffset="328"/>
    <component base="dvP" xOffset="-10"/>
  </outline>
</glyph>
<glyph name="dvRA_mUU" format="1">
  <advance width="740"/>
  <outline>
    <contour>
      <point x="381" y="662" type="move" name="abvm.bindu"/>
    </contour>
    <contour>
      <point x="380" y="672" type="move" name="abvm.e"/>
    </contour>
    <contour>
      <point x="243" y="532" type="line"/>
      <point x="279" y="441"/>
      <point x="295" y="310"/>
      <point x="179" y="272" type="curve"/>
      <point x="166" y="305"/>
      <point x="167" y="337"/>
      <point x="155" y="350" type="curve"/>
      <point x="135" y="369"/>
      <point x="93" y="398"/>
      <point x="79" y="381" type="curve" smooth="yes"/>
      <point x="61" y="360"/>
      <point x="45" y="324"/>
      <point x="33" y="290" type="curve"/>
      <point x="93" y="122"/>
      <point x="265" y="15"/>
      <point x="388" y="-56" type="curve"/>
      <point x="416" y="-20" type="line"/>
      <point x="369" y="3"/>
      <point x="272" y="60"/>
      <point x="209" y="152" type="curve"/>
      <point x="387" y="219"/>
      <point x="407" y="390"/>
      <point x="308" y="532" type="curve"/>
    </contour>
    <contour>
      <point x="-9" y="523" type="line"/>
      <point x="746" y="523" type="line"/>
      <point x="746" y="619" type="line"/>
      <point x="-9" y="619" type="line"/>
    </contour>
    <contour>
      <point x="397" y="94" type="curve" smooth="yes"/>
      <point x="420" y="88"/>
      <point x="476" y="115"/>
      <point x="512" y="161" type="curve"/>
      <point x="455" y="234" type="line"/>
      <point x="345" y="123"/>
      <point x="283" y="210"/>
      <point x="358" y="270" type="curve" smooth="yes"/>
      <point x="449" y="343"/>
      <point x="489" y="298"/>
      <point x="675" y="157" type="curve"/>
      <point x="693" y="178" type="line"/>
      <point x="584" y="286"/>
      <point x="482" y="388"/>
      <point x="436" y="396" type="curve" smooth="yes"/>
      <point x="314" y="416"/>
      <point x="187" y="276"/>
      <point x="273" y="185" type="curve" smooth="yes"/>
      <point x="320" y="136"/>
      <point x="369" y="100"/>
    </contour>
  </outline>
</glyph>
<glyph name="dvRashtrasign" format="1">
  <advance width="0"/>
  <outline>
    <contour>
      <point x="-455" y="-116" type="line"/>
      <point x="-375" y="-204" type="line"/>
      <point x="-183" y="-22" type="line"/>
      <point x="-236" y="28" type="line"/>
    </contour>
    <contour>
      <point x="-44" y="-204" type="line"/>
      <point x="-11" y="-164" type="line"/>
      <point x="-236" y="28" type="line"/>
      <point x="-265" y="6" type="line"/>
    </contour>
  </outline>
</glyph>
<glyph name="dvReph_Anusvara.amI" format="1">
  <advance width="0"/>
  <outline>
    <contour>
      <point x="-71" y="615" type="move" name="_abvm.i"/>
    </contour>
    <component base="dvAnusvara" xScale="0.771000027657" yScale="0.771000027657" xOffset="165" yOffset="131"/>
    <component base="dvReph.amI"/>
  </outline>
</glyph>
<glyph name="dvSA" format="1">
  <advance width="721"/>
  <outline>
    <contour>
      <point x="-3" y="523" type="line"/>
      <point x="725" y="523" type="line"/>
      <point x="725" y="619" type="line"/>
      <point x="-3" y="619" type="line"/>
    </contour>
    <contour>
      <point x="547" y="1" type="line"/>
      <point x="671" y="-55" type="line"/>
      <point x="671" y="538" type="line"/>
      <point x="547" y="538" type="line"/>
    </contour>
    <contour>
      <point x="291" y="248" type="line"/>
      <point x="291" y="248"/>
      <point x="396" y="171"/>
      <point x="440" y="171" type="curve" smooth="yes"/>
      <point x="518" y="171"/>
      <point x="630" y="251"/>
      <point x="630" y="251" type="curve"/>
      <point x="557" y="358" type="line"/>
      <point x="489" y="216"/>
      <point x="337" y="251"/>
      <point x="306" y="289" type="curve"/>
    </contour>
    <contour>
      <point x="234" y="532" type="line"/>
      <point x="270" y="441"/>
      <point x="285" y="307"/>
      <point x="169" y="269" type="curve"/>
      <point x="158" y="306"/>
      <point x="158" y="338"/>
      <point x="146" y="351" type="curve"/>
      <point x="126" y="370"/>
      <point x="84" y="398"/>
      <point x="70" y="382" type="curve" smooth="yes"/>
      <point x="52" y="361"/>
      <point x="36" y="324"/>
      <point x="24" y="290" type="curve"/>
      <point x="84" y="122"/>
      <point x="258" y="20"/>
      <point x="379" y="-56" type="curve"/>
      <point x="407" y="-19" type="line"/>
      <point x="341" y="26"/>
      <point x="228" y="116"/>
      <point x="202" y="166" type="curve"/>
      <point x="378" y="224"/>
      <point x="398" y="390"/>
      <point x="299" y="532" type="curve"/>
    </contour>
  </outline>
</glyph>
<glyph name="dvSHA_mvR" format="1">
  <advance width="833"/>
  <outline>
    <contour>
      <point x="706" y="662" type="move" name="abvm.bindu"/>
    </contour>
    <contour>
      <point x="706" y="672" type="move" name="abvm.e"/>
    </contour>
  </outline>
</glyph>
<glyph name="dvSS_KA" format="1">
  <advance width="1259"/>
  <outline>
    <contour>
      <point x="866" y="619" type="move" name="abvm.bindu"/>
    </contour>
    <contour>
      <point x="841" y="-27" type="move" name="blwm.virama"/>
    </contour>
    <contour>
      <point x="850" y="619" type="move" name="abvm.e"/>
    </contour>
    <contour>
      <point x="845" y="-29" type="move" name="blwm.u"/>
    </contour>
    <contour>
      <point x="136" y="512" type="line"/>
      <point x="170" y="546" type="line"/>
      <point x="487" y="249" type="line"/>
      <point x="453" y="215" type="line"/>
    </contour>
    <contour>
      <point x="-14" y="619" type="line"/>
      <point x="542" y="619" type="line"/>
      <point x="542" y="523" type="line"/>
      <point x="-14" y="523" type="line"/>
    </contour>
    <contour>
      <point x="449" y="325" type="curve"/>
      <point x="448" y="325"/>
      <point x="530" y="237"/>
      <point x="530" y="237" type="curve"/>
      <point x="530" y="237"/>
      <point x="408" y="85"/>
      <point x="280" y="85" type="curve" smooth="yes"/>
      <point x="210" y="85"/>
      <point x="129" y="180"/>
      <point x="65" y="248" type="curve" smooth="yes"/>
      <point x="56" y="258"/>
      <point x="60" y="540"/>
      <point x="60" y="540" type="curve" smooth="yes"/>
      <point x="59" y="540"/>
      <point x="182" y="540"/>
      <point x="182" y="540" type="curve"/>
      <point x="186" y="224" type="line"/>
      <point x="248" y="157"/>
      <point x="416" y="223"/>
    </contour>
    <component base="dvKA" xOffset="407"/>
  </outline>
</glyph>
<glyph name="dvS_DA" format="1">
  <advance width="1066"/>
  <outline>
    <contour>
      <point x="913" y="662" type="move" name="abvm.bindu"/>
    </contour>
    <contour>
      <point x="732" y="-93" type="move" name="blwm.virama"/>
    </contour>
    <contour>
      <point x="912" y="672" type="move" name="abvm.e"/>
    </contour>
    <contour>
      <point x="806" y="-21" type="move" name="blwm.u"/>
    </contour>
    <component base="dvDA" xOffset="481"/>
    <component base="dvS"/>
  </outline>
</glyph>
<glyph name="dvS_DA_mU" format="1">
  <advance width="1101"/>
  <outline>
    <contour>
      <point x="892" y="620" type="move" name="abvm.bindu"/>
    </contour>
    <contour>
      <point x="874" y="618" type="move" name="abvm.e"/>
    </contour>
    <component base="dvDA_mU" xOffset="459"/>
    <component base="dvS"/>
  </outline>
</glyph>
<glyph name="dvS_M_YA" format="1">
  <advance width="1514"/>
  <outline>
    <contour>
      <point x="292" y="532" type="line"/>
      <point x="391" y="390"/>
      <point x="371" y="224"/>
      <point x="195" y="166" type="curve"/>
      <point x="221" y="116"/>
      <point x="334" y="26"/>
      <point x="400" y="-19" type="curve"/>
      <point x="372" y="-56" type="line"/>
      <point x="251" y="20"/>
      <point x="77" y="122"/>
      <point x="17" y="290" type="curve"/>
      <point x="29" y="324"/>
      <point x="45" y="361"/>
      <point x="63" y="382" type="curve" smooth="yes"/>
      <point x="77" y="398"/>
      <point x="119" y="370"/>
      <point x="139" y="351" type="curve"/>
      <point x="151" y="338"/>
      <point x="151" y="306"/>
      <point x="162" y="269" type="curve"/>
      <point x="278" y="307"/>
      <point x="263" y="441"/>
      <point x="227" y="532" type="curve"/>
    </contour>
    <contour>
      <point x="299" y="289" type="line"/>
      <point x="330" y="251"/>
      <point x="422" y="224"/>
      <point x="541" y="267" type="curve"/>
      <point x="594" y="193" type="line"/>
      <point x="594" y="193"/>
      <point x="514" y="147"/>
      <point x="436" y="147" type="curve" smooth="yes"/>
      <point x="392" y="147"/>
      <point x="284" y="248"/>
      <point x="284" y="248" type="curve"/>
    </contour>
    <contour>
      <point x="-10" y="619" type="line"/>
      <point x="638" y="619" type="line"/>
      <point x="638" y="523" type="line"/>
      <point x="-10" y="523" type="line"/>
    </contour>
    <component base="dvYA" xOffset="836"/>
    <component base="dvM" xOffset="425"/>
  </outline>
</glyph>
<glyph name="dvS_P_RA" format="1">
  <advance width="1057"/>
  <outline>
    <contour>
      <point x="969" y="233" type="line"/>
      <point x="938" y="183"/>
      <point x="767" y="27"/>
      <point x="665" y="-56" type="curve"/>
      <point x="581" y="10" type="line"/>
      <point x="680" y="76"/>
      <point x="884" y="205"/>
      <point x="946" y="278" type="curve"/>
    </contour>
    <component base="dvS" xOffset="-2"/>
    <component base="dvPA" xOffset="450"/>
  </outline>
</glyph>
<glyph name="dvS_TTA" format="1">
  <advance width="1133"/>
  <outline>
    <contour>
      <point x="991" y="662" type="move" name="abvm.bindu"/>
    </contour>
    <contour>
      <point x="821" y="0" type="move" name="blwm.virama"/>
    </contour>
    <contour>
      <point x="1010" y="672" type="move" name="abvm.e"/>
    </contour>
    <contour>
      <point x="880" y="-10" type="move" name="blwm.u"/>
    </contour>
    <component base="dvTTA" xOffset="510"/>
  </outline>
</glyph>
<glyph name="dvSix" format="1">
  <advance width="605"/>
  <outline>
    <contour>
      <point x="556" y="-118" type="line"/>
      <point x="595" y="-91" type="line"/>
      <point x="480" y="52" type="line"/>
      <point x="533" y="105" type="line" smooth="yes"/>
      <point x="563" y="135"/>
      <point x="546" y="181"/>
      <point x="519" y="213" type="curve" smooth="yes"/>
      <point x="487" y="251"/>
      <point x="452" y="279"/>
      <point x="405" y="249" type="curve" smooth="yes"/>
      <point x="387" y="238"/>
      <point x="350" y="210"/>
      <point x="335" y="180" type="curve" smooth="yes"/>
      <point x="331" y="172"/>
      <point x="337" y="159"/>
      <point x="380" y="103" type="curve"/>
      <point x="307" y="57"/>
      <point x="230" y="44"/>
      <point x="180" y="104" type="curve" smooth="yes"/>
      <point x="107" y="190"/>
      <point x="238" y="254"/>
      <point x="333" y="292" type="curve"/>
      <point x="271" y="353" type="line"/>
      <point x="248" y="350"/>
      <point x="218" y="338"/>
      <point x="188" y="321" type="curve"/>
      <point x="85" y="414"/>
      <point x="233" y="514"/>
      <point x="394" y="488" type="curve"/>
      <point x="354" y="584" type="line"/>
      <point x="175" y="596"/>
      <point x="22" y="446"/>
      <point x="81" y="386" type="curve" smooth="yes"/>
      <point x="136" y="329"/>
      <point x="150" y="316"/>
      <point x="162" y="306" type="curve"/>
      <point x="98" y="264"/>
      <point x="41" y="205"/>
      <point x="67" y="171" type="curve" smooth="yes"/>
      <point x="117" y="106"/>
      <point x="154" y="60"/>
      <point x="213" y="1" type="curve" smooth="yes"/>
      <point x="264" y="-50"/>
      <point x="355" y="-28"/>
      <point x="439" y="28" type="curve"/>
    </contour>
  </outline>
</glyph>
<glyph name="dvTHA" format="1">
  <advance width="661"/>
  <outline>
    <contour>
      <point x="477" y="1" type="line"/>
      <point x="601" y="-55" type="line"/>
      <point x="601" y="522" type="line"/>
      <point x="672" y="522" type="line"/>
      <point x="672" y="619" type="line"/>
      <point x="345" y="619" type="line"/>
      <point x="384" y="522" type="line"/>
      <point x="477" y="522" type="line"/>
      <point x="477" y="303" type="line"/>
      <point x="407" y="179"/>
      <point x="252" y="117"/>
      <point x="140" y="224" type="curve"/>
      <point x="230" y="284"/>
      <point x="394" y="375"/>
      <point x="362" y="465" type="curve" smooth="yes"/>
      <point x="350" y="498"/>
      <point x="282" y="575"/>
      <point x="213" y="617" type="curve" smooth="yes"/>
      <point x="155" y="652"/>
      <point x="26" y="595"/>
      <point x="26" y="511" type="curve" smooth="yes"/>
      <point x="26" y="452"/>
      <point x="104" y="402"/>
      <point x="180" y="379" type="curve"/>
      <point x="142" y="348"/>
      <point x="22" y="299"/>
      <point x="26" y="288" type="curve" smooth="yes"/>
      <point x="34" y="263"/>
      <point x="211" y="72"/>
      <point x="314" y="72" type="curve" smooth="yes"/>
      <point x="391" y="72"/>
      <point x="442" y="108"/>
      <point x="477" y="143" type="curve"/>
    </contour>
    <contour>
      <point x="209" y="408" type="curve" smooth="yes"/>
      <point x="146" y="408"/>
      <point x="76" y="495"/>
      <point x="180" y="550" type="curve" smooth="yes"/>
      <point x="238" y="580"/>
      <point x="280" y="524"/>
      <point x="271" y="466" type="curve" smooth="yes"/>
      <point x="269" y="454"/>
      <point x="224" y="408"/>
    </contour>
  </outline>
</glyph>
<glyph name="dvTTH_VA" format="1">
  <advance width="605"/>
  <outline>
    <contour>
      <point x="453" y="662" type="move" name="abvm.bindu"/>
    </contour>
    <contour>
      <point x="304" y="-320" type="move" name="blwm.virama"/>
    </contour>
    <contour>
      <point x="459" y="672" type="move" name="abvm.e"/>
    </contour>
    <contour>
      <point x="304" y="-339" type="move" name="blwm.u"/>
    </contour>
    <contour>
      <point x="349" y="469" type="line"/>
      <point x="349" y="523" type="line"/>
      <point x="-8" y="523" type="line"/>
      <point x="-8" y="619" type="line"/>
      <point x="610" y="619" type="line"/>
      <point x="610" y="523" type="line"/>
      <point x="460" y="523" type="line"/>
      <point x="460" y="419" type="line"/>
      <point x="579" y="350"/>
      <point x="592" y="258"/>
      <point x="555" y="182" type="curve"/>
      <point x="556" y="182" type="line"/>
      <point x="556" y="-472" type="line"/>
      <point x="446" y="-424" type="line"/>
      <point x="446" y="-317" type="line"/>
      <point x="303" y="-466"/>
      <point x="183" y="-363"/>
      <point x="105" y="-210" type="curve"/>
      <point x="60" y="-125"/>
      <point x="279" y="27"/>
      <point x="338" y="-13" type="curve" smooth="yes"/>
      <point x="446" y="-86" type="line"/>
      <point x="446" y="71" type="line"/>
      <point x="375" y="32"/>
      <point x="288" y="23"/>
      <point x="228" y="74" type="curve" smooth="yes"/>
      <point x="165" y="127"/>
      <point x="138" y="169"/>
      <point x="96" y="231" type="curve" smooth="yes"/>
      <point x="46" y="305"/>
      <point x="115" y="449"/>
      <point x="192" y="457" type="curve"/>
    </contour>
    <contour>
      <point x="308" y="133" type="curve" smooth="yes"/>
      <point x="424" y="131"/>
      <point x="558" y="248"/>
      <point x="456" y="392" type="curve"/>
      <point x="294" y="395" type="line" smooth="yes"/>
      <point x="189" y="397"/>
      <point x="119" y="136"/>
    </contour>
    <contour>
      <point x="202" y="-272" type="curve" smooth="yes"/>
      <point x="227" y="-300"/>
      <point x="339" y="-346"/>
      <point x="446" y="-200" type="curve"/>
      <point x="446" y="-139" type="line"/>
      <point x="303" y="-49"/>
      <point x="151" y="-218"/>
    </contour>
  </outline>
</glyph>
<glyph name="dvTwo" format="1">
  <advance width="569"/>
  <outline>
    <contour>
      <point x="407" y="486" type="curve" smooth="yes"/>
      <point x="350" y="543"/>
      <point x="330" y="558"/>
      <point x="273" y="606" type="curve" smooth="yes"/>
      <point x="202" y="665"/>
      <point x="76" y="566"/>
      <point x="40" y="542" type="curve"/>
      <point x="101" y="455" type="line"/>
      <point x="146" y="486"/>
      <point x="299" y="586"/>
      <point x="344" y="473" type="curve" smooth="yes"/>
      <point x="368" y="413"/>
      <point x="354" y="292"/>
      <point x="220" y="277" type="curve"/>
      <point x="274" y="184" type="line"/>
      <point x="444" y="192"/>
      <point x="485" y="407"/>
    </contour>
    <contour>
      <point x="579" y="-12" type="line"/>
      <point x="491" y="53"/>
      <point x="179" y="336"/>
      <point x="134" y="362" type="curve"/>
      <point x="98" y="354"/>
      <point x="59" y="315"/>
      <point x="59" y="301" type="curve" smooth="yes"/>
      <point x="56" y="258"/>
      <point x="105" y="211"/>
      <point x="110" y="205" type="curve" smooth="yes"/>
      <point x="137" y="176"/>
      <point x="220" y="184"/>
      <point x="275" y="185" type="curve"/>
      <point x="343" y="122"/>
      <point x="477" y="12"/>
      <point x="538" y="-51" type="curve"/>
    </contour>
  </outline>
</glyph>
<glyph name="dvUU" format="1">
  <advance width="782"/>
  <outline>
    <contour>
      <point x="478" y="662" type="move" name="abvm.bindu"/>
    </contour>
    <contour>
      <point x="-8" y="522" type="line"/>
      <point x="787" y="522" type="line"/>
      <point x="787" y="619" type="line"/>
      <point x="-8" y="619" type="line"/>
    </contour>
    <contour>
      <point x="441" y="236" type="line"/>
      <point x="605" y="435"/>
      <point x="721" y="241"/>
      <point x="555" y="142" type="curve"/>
      <point x="627" y="81" type="line"/>
      <point x="715" y="133"/>
      <point x="722" y="241"/>
      <point x="663" y="306" type="curve" smooth="yes"/>
      <point x="626" y="348"/>
      <point x="576" y="394"/>
      <point x="540" y="395" type="curve" smooth="yes"/>
      <point x="486" y="397"/>
      <point x="393" y="327"/>
      <point x="364" y="300" type="curve"/>
    </contour>
    <contour>
      <point x="334" y="293" type="line"/>
      <point x="412" y="228"/>
      <point x="438" y="148"/>
      <point x="346" y="99" type="curve" smooth="yes"/>
      <point x="192" y="17"/>
      <point x="116" y="197"/>
      <point x="59" y="288" type="curve"/>
      <point x="34" y="270" type="line"/>
      <point x="106" y="136"/>
      <point x="150" y="41"/>
      <point x="221" y="-2" type="curve" smooth="yes"/>
      <point x="322" y="-62"/>
      <point x="534" y="49"/>
      <point x="511" y="152" type="curve" smooth="yes"/>
      <point x="499" y="204"/>
      <point x="401" y="275"/>
      <point x="352" y="308" type="curve"/>
    </contour>
    <contour>
      <point x="410" y="396" type="curve" smooth="yes"/>
      <point x="415" y="444"/>
      <point x="276" y="542"/>
      <point x="250" y="548" type="curve"/>
      <point x="237" y="533" type="line"/>
      <point x="396" y="396"/>
      <point x="265" y="355"/>
      <point x="179" y="329" type="curve"/>
      <point x="238" y="246" type="line"/>
      <point x="393" y="299"/>
      <point x="407" y="369"/>
    </contour>
  </outline>
</glyph>
<glyph name="dvY_NA" format="1">
  <advance width="679"/>
  <outline>
    <contour>
      <point x="507" y="115" type="line"/>
      <point x="203" y="34" type="line"/>
      <point x="-25" y="-28"/>
      <point x="225" y="-148"/>
      <point x="202" y="43" type="curve"/>
      <point x="241" y="59" type="line"/>
      <point x="358" y="-12"/>
      <point x="234" y="-158"/>
      <point x="185" y="-135" type="curve"/>
      <point x="130" y="-111"/>
      <point x="100" y="-95"/>
      <point x="59" y="-68" type="curve" smooth="yes"/>
      <point x="-5" y="-26"/>
      <point x="24" y="56"/>
      <point x="77" y="95" type="curve"/>
      <point x="88" y="102"/>
      <point x="42" y="84"/>
      <point x="481" y="207" type="curve"/>
    </contour>
    <component base="dvYA"/>
  </outline>
</glyph>
<glyph name="dvZero" format="1">
  <advance width="589"/>
  <outline>
    <contour>
      <point x="374" y="463" type="curve" smooth="yes"/>
      <point x="470" y="398"/>
      <point x="336" y="79"/>
      <point x="204" y="182" type="curve" smooth="yes"/>
      <point x="90" y="271"/>
      <point x="258" y="541"/>
    </contour>
    <contour>
      <point x="467" y="466" type="curve" smooth="yes"/>
      <point x="434" y="491"/>
      <point x="421" y="493"/>
      <point x="305" y="572" type="curve" smooth="yes"/>
      <point x="227" y="624"/>
      <point x="-94" y="338"/>
      <point x="119" y="174" type="curve" smooth="yes"/>
      <point x="156" y="146"/>
      <point x="189" y="125"/>
      <point x="212" y="111" type="curve" smooth="yes"/>
      <point x="469" y="-40"/>
      <point x="608" y="356"/>
    </contour>
  </outline>
</glyph>
<glyph name="dvmAA" format="1">
  <advance width="269"/>
  <outline>
    <contour>
      <point x="-5" y="522" type="line"/>
      <point x="272" y="522" type="line"/>
      <point x="272" y="619" type="line"/>
      <point x="-5" y="619" type="line"/>
    </contour>
    <contour>
      <point x="71" y="0" type="line"/>
      <point x="195" y="-56" type="line"/>
      <point x="195" y="537" type="line"/>
      <point x="71" y="537" type="line"/>
    </contour>
  </outline>
</glyph>
<glyph name="dvmAU_Reph" format="1">
  <advance width="287"/>
  <outline>
    <contour>
      <point x="186" y="615" type="line"/>
      <point x="98" y="689"/>
      <point x="152" y="824"/>
      <point x="219" y="824" type="curve" smooth="yes"/>
      <point x="248" y="824"/>
      <point x="310" y="792"/>
      <point x="333" y="779" type="curve"/>
      <point x="349" y="803" type="line"/>
      <point x="296" y="843"/>
      <point x="221" y="894"/>
      <point x="201" y="894" type="curve" smooth="yes"/>
      <point x="141" y="894"/>
      <point x="68" y="821"/>
      <point x="68" y="755" type="curve" smooth="yes"/>
      <point x="68" y="750"/>
      <point x="82" y="676"/>
      <point x="149" y="615" type="curve"/>
    </contour>
    <component base="dvmAI" xOffset="268"/>
    <component base="dvmAA"/>
  </outline>
</glyph>
<glyph name="dvmEcandra" format="1">
  <advance width="0"/>
  <outline>
    <contour>
      <point x="-82" y="662" type="move" name="_abvm.bindu"/>
    </contour>
  </outline>
</glyph>
<glyph name="dvmII" format="1">
  <advance width="226"/>
  <outline>
    <contour>
      <point x="-44" y="522" type="line"/>
      <point x="32" y="522" type="line"/>
      <point x="32" y="1" type="line"/>
      <point x="156" y="-55" type="line"/>
      <point x="156" y="522" type="line"/>
      <point x="233" y="522" type="line"/>
      <point x="233" y="619" type="line"/>
      <point x="105" y="619" type="line"/>
      <point x="8" y="740"/>
      <point x="-66" y="864"/>
      <point x="-120" y="864" type="curve" smooth="yes"/>
      <point x="-197" y="864"/>
      <point x="-267" y="803"/>
      <point x="-299" y="752" type="curve" smooth="yes"/>
      <point x="-324" y="711"/>
      <point x="-267" y="643"/>
      <point x="-225" y="605" type="curve"/>
      <point x="-147" y="604" type="line"/>
      <point x="-163" y="621"/>
      <point x="-207" y="663"/>
      <point x="-211" y="705" type="curve" smooth="yes"/>
      <point x="-216" y="747"/>
      <point x="-136" y="833"/>
      <point x="-17" y="699" type="curve"/>
      <point x="52" y="619" type="line"/>
      <point x="-44" y="619" type="line"/>
    </contour>
  </outline>
</glyph>
<glyph name="dvmI.a01" format="1">
  <advance width="270"/>
  <outline>
    <contour>
      <point x="614" y="587" type="move" name="abvm.i"/>
    </contour>
    <contour>
      <point x="73" y="536" type="line"/>
      <point x="197" y="536" type="line"/>
      <point x="197" y="-57" type="line"/>
      <point x="73" y="-1" type="line"/>
    </contour>
    <contour>
      <point x="-3" y="619" type="line"/>
      <point x="274" y="619" type="line"/>
      <point x="274" y="523" type="line"/>
      <point x="-3" y="523" type="line"/>
    </contour>
    <contour>
      <point x="80" y="604" type="line"/>
      <point x="38" y="641"/>
      <point x="7" y="703"/>
      <point x="22" y="745" type="curve" smooth="yes"/>
      <point x="38" y="788"/>
      <point x="142" y="862"/>
      <point x="180" y="860" type="curve" smooth="yes"/>
      <point x="232" y="857"/>
      <point x="523" y="693"/>
      <point x="649" y="600" type="curve"/>
      <point x="585" y="601" type="line"/>
      <point x="208" y="842"/>
      <point x="134" y="733"/>
      <point x="136" y="684" type="curve" smooth="yes"/>
      <point x="137" y="649"/>
      <point x="170" y="621"/>
      <point x="186" y="604" type="curve"/>
    </contour>
  </outline>
</glyph>
<glyph name="dvmI.a06" format="1">
  <advance width="268"/>
  <outline>
    <contour>
      <point x="940" y="587" type="move" name="abvm.i"/>
    </contour>
    <contour>
      <point x="73" y="536" type="line"/>
      <point x="197" y="536" type="line"/>
      <point x="197" y="-57" type="line"/>
      <point x="73" y="-1" type="line"/>
    </contour>
    <contour>
      <point x="-3" y="619" type="line"/>
      <point x="274" y="619" type="line"/>
      <point x="274" y="523" type="line"/>
      <point x="-3" y="523" type="line"/>
    </contour>
    <contour>
      <point x="80" y="604" type="line"/>
      <point x="38" y="641"/>
      <point x="12" y="722"/>
      <point x="27" y="764" type="curve" smooth="yes"/>
      <point x="43" y="807"/>
      <point x="232" y="862"/>
      <point x="270" y="860" type="curve" smooth="yes"/>
      <point x="322" y="857"/>
      <point x="903" y="637"/>
      <point x="953" y="600" type="curve"/>
      <point x="889" y="601" type="line"/>
      <point x="511" y="731"/>
      <point x="151" y="836"/>
      <point x="146" y="679" type="curve" smooth="yes"/>
      <point x="145" y="649"/>
      <point x="180" y="621"/>
      <point x="196" y="604" type="curve"/>
    </contour>
  </outline>
</glyph>
<glyph name="dvmI.a13" format="1">
  <advance width="270"/>
  <outline>
    <contour>
      <point x="1215" y="587" type="move" name="abvm.i"/>
    </contour>
    <contour>
      <point x="73" y="536" type="line"/>
      <point x="197" y="536" type="line"/>
      <point x="197" y="-57" type="line"/>
      <point x="73" y="-1" type="line"/>
    </contour>
    <contour>
      <point x="-3" y="619" type="line"/>
      <point x="274" y="619" type="line"/>
      <point x="274" y="523" type="line"/>
      <point x="-3" y="523" type="line"/>
    </contour>
    <contour>
      <point x="80" y="604" type="line"/>
      <point x="38" y="641"/>
      <point x="12" y="722"/>
      <point x="27" y="764" type="curve" smooth="yes"/>
      <point x="43" y="807"/>
      <point x="282" y="870"/>
      <point x="320" y="870" type="curve" smooth="yes"/>
      <point x="407" y="870"/>
      <point x="1177" y="625"/>
      <point x="1233" y="600" type="curve"/>
      <point x="1169" y="601" type="line"/>
      <point x="779" y="732"/>
      <point x="0" y="917"/>
      <point x="196" y="604" type="curve"/>
    </contour>
  </outline>
</glyph>
<glyph name="dvmI.a17" format="1">
  <advance width="287"/>
  <outline>
    <contour>
      <point x="1399" y="587" type="move" name="abvm.i"/>
    </contour>
  </outline>
</glyph>
<glyph name="dvmI.a18" format="1">
  <advance width="273"/>
  <outline>
    <contour>
      <point x="1437" y="587" type="move" name="abvm.i"/>
    </contour>
    <contour>
      <point x="73" y="536" type="line"/>
      <point x="197" y="536" type="line"/>
      <point x="197" y="-57" type="line"/>
      <point x="73" y="-1" type="line"/>
    </contour>
    <contour>
      <point x="-3" y="619" type="line"/>
      <point x="274" y="619" type="line"/>
      <point x="274" y="523" type="line"/>
      <point x="-3" y="523" type="line"/>
    </contour>
    <contour>
      <point x="80" y="604" type="line"/>
      <point x="38" y="641"/>
      <point x="42" y="722"/>
      <point x="57" y="764" type="curve" smooth="yes"/>
      <point x="73" y="807"/>
      <point x="332" y="880"/>
      <point x="370" y="880" type="curve" smooth="yes"/>
      <point x="457" y="880"/>
      <point x="1218" y="684"/>
      <point x="1453" y="600" type="curve"/>
      <point x="1389" y="601" type="line"/>
      <point x="788" y="739"/>
      <point x="84" y="927"/>
      <point x="196" y="604" type="curve"/>
    </contour>
  </outline>
</glyph>
<glyph name="dvmI.a30" format="1">
  <advance width="268"/>
  <outline>
    <contour>
      <point x="1889" y="587" type="move" name="abvm.i"/>
    </contour>
    <contour>
      <point x="73" y="536" type="line"/>
      <point x="197" y="536" type="line"/>
      <point x="197" y="-57" type="line"/>
      <point x="73" y="-1" type="line"/>
    </contour>
    <contour>
      <point x="-3" y="619" type="line"/>
      <point x="274" y="619" type="line"/>
      <point x="274" y="523" type="line"/>
      <point x="-3" y="523" type="line"/>
    </contour>
    <contour>
      <point x="80" y="604" type="line"/>
      <point x="70" y="667"/>
      <point x="73" y="737"/>
      <point x="88" y="779" type="curve" smooth="yes"/>
      <point x="104" y="822"/>
      <point x="1121" y="879"/>
      <point x="1158" y="873" type="curve" smooth="yes"/>
      <point x="1230" y="861"/>
      <point x="1877" y="625"/>
      <point x="1933" y="600" type="curve"/>
      <point x="1829" y="601" type="line"/>
      <point x="1359" y="744"/>
      <point x="1268" y="811"/>
      <point x="890" y="776" type="curve" smooth="yes"/>
      <point x="687" y="757"/>
      <point x="97" y="751"/>
      <point x="196" y="604" type="curve"/>
    </contour>
  </outline>
</glyph>
<glyph name="dvmvRR" format="1">
  <advance width="0"/>
  <outline>
    <contour>
      <point x="-139" y="-10" type="move" name="_blwm.virama"/>
    </contour>
    <contour>
      <point x="-112" y="-182" type="curve"/>
      <point x="-64" y="-257" type="line"/>
      <point x="-129" y="-272"/>
      <point x="-265" y="-343"/>
      <point x="-195" y="-398" type="curve" smooth="yes"/>
      <point x="-169" y="-418"/>
      <point x="-126" y="-423"/>
      <point x="-70" y="-362" type="curve"/>
      <point x="38" y="-425" type="line"/>
      <point x="-48" y="-514"/>
      <point x="-148" y="-483"/>
      <point x="-220" y="-432" type="curve" smooth="yes"/>
      <point x="-273" y="-395"/>
      <point x="-337" y="-296"/>
      <point x="-225" y="-226" type="curve"/>
      <point x="-323" y="-156"/>
      <point x="-389" y="-37"/>
      <point x="-160" y="19" type="curve"/>
      <point x="-68" y="-56" type="line"/>
      <point x="-130" y="-70"/>
      <point x="-277" y="-138"/>
      <point x="-181" y="-204" type="curve"/>
      <point x="-161" y="-196"/>
      <point x="-138" y="-188"/>
    </contour>
  </outline>
</glyph>
<glyph name="dvvL" format="1">
  <advance width="737"/>
  <outline>
    <contour>
      <point x="575" y="621" type="move" name="abvm.bindu"/>
    </contour>
    <contour>
      <point x="556" y="619" type="move" name="abvm.e"/>
    </contour>
    <contour>
      <point x="485" y="538" type="line"/>
      <point x="609" y="538" type="line"/>
      <point x="609" y="318" type="line"/>
      <point x="485" y="374" type="line"/>
    </contour>
    <contour>
      <point x="-10" y="619" type="line"/>
      <point x="747" y="619" type="line"/>
      <point x="747" y="523" type="line"/>
      <point x="-10" y="523" type="line"/>
    </contour>
    <contour>
      <point x="318" y="273" type="line"/>
      <point x="138" y="407"/>
      <point x="67" y="221"/>
      <point x="160" y="105" type="curve" smooth="yes"/>
      <point x="188" y="69"/>
      <point x="224" y="24"/>
      <point x="274" y="-23" type="curve"/>
      <point x="247" y="-57" type="line"/>
      <point x="148" y="30"/>
      <point x="13" y="190"/>
      <point x="5" y="253" type="curve" smooth="yes"/>
      <point x="-3" y="319"/>
      <point x="143" y="432"/>
      <point x="198" y="414" type="curve" smooth="yes"/>
      <point x="238" y="401"/>
      <point x="303" y="336"/>
      <point x="339" y="298" type="curve"/>
    </contour>
    <contour>
      <point x="707" y="-110" type="line"/>
      <point x="612" y="-196"/>
      <point x="548" y="-169"/>
      <point x="517" y="-143" type="curve" smooth="yes"/>
      <point x="472" y="-106"/>
      <point x="439" y="-61"/>
      <point x="407" y="-15" type="curve" smooth="yes"/>
      <point x="326" y="101"/>
      <point x="688" y="195"/>
      <point x="595" y="289" type="curve" smooth="yes"/>
      <point x="504" y="381"/>
      <point x="371" y="215"/>
      <point x="350" y="122" type="curve"/>
      <point x="270" y="185" type="line"/>
      <point x="281" y="232"/>
      <point x="365" y="395"/>
      <point x="484" y="400" type="curve" smooth="yes"/>
      <point x="520" y="401"/>
      <point x="655" y="305"/>
      <point x="683" y="259" type="curve" smooth="yes"/>
      <point x="766" y="123"/>
      <point x="435" y="54"/>
      <point x="504" y="-58" type="curve" smooth="yes"/>
      <point x="525" y="-92"/>
      <point x="581" y="-100"/>
      <point x="621" y="-43" type="curve"/>
    </contour>
  </outline>
</glyph>
<glyph name="dvvRR" format="1">
  <advance width="911"/>
  <outline>
    <contour>
      <point x="462" y="619" type="move" name="abvm.bindu"/>
    </contour>
    <contour>
      <point x="441" y="619" type="move" name="abvm.e"/>
    </contour>
    <contour>
      <point x="-11" y="619" type="line"/>
      <point x="923" y="619" type="line"/>
      <point x="923" y="523" type="line"/>
      <point x="508" y="523" type="line"/>
      <point x="508" y="347" type="line"/>
      <point x="542" y="344"/>
      <point x="580" y="351"/>
      <point x="613" y="383" type="curve"/>
      <point x="600" y="395"/>
      <point x="587" y="423"/>
      <point x="591" y="430" type="curve" smooth="yes"/>
      <point x="606" y="460"/>
      <point x="665" y="491"/>
      <point x="681" y="489" type="curve" smooth="yes"/>
      <point x="695" y="487"/>
      <point x="774" y="421"/>
      <point x="750" y="393" type="curve" smooth="yes"/>
      <point x="712" y="350" type="line"/>
      <point x="756" y="296" type="line"/>
      <point x="790" y="258" type="line"/>
      <point x="698" y="217"/>
      <point x="650" y="195"/>
      <point x="710" y="145" type="curve"/>
      <point x="727" y="154"/>
      <point x="746" y="163"/>
      <point x="770" y="173" type="curve"/>
      <point x="824" y="117" type="line"/>
      <point x="767" y="95"/>
      <point x="652" y="32"/>
      <point x="715" y="-14" type="curve" smooth="yes"/>
      <point x="741" y="-33"/>
      <point x="784" y="-25"/>
      <point x="826" y="34" type="curve"/>
      <point x="920" y="0" type="line"/>
      <point x="831" y="-108"/>
      <point x="713" y="-102"/>
      <point x="646" y="13" type="curve" smooth="yes"/>
      <point x="627" y="47"/>
      <point x="627" y="86"/>
      <point x="684" y="128" type="curve"/>
      <point x="599" y="176"/>
      <point x="555" y="217"/>
      <point x="710" y="302" type="curve"/>
      <point x="683" y="331" type="line"/>
      <point x="639" y="274"/>
      <point x="569" y="277"/>
      <point x="508" y="298" type="curve"/>
      <point x="508" y="-55" type="line"/>
      <point x="384" y="1" type="line"/>
      <point x="384" y="175" type="line"/>
      <point x="338" y="138"/>
      <point x="268" y="95"/>
      <point x="192" y="53" type="curve"/>
      <point x="115" y="142" type="line"/>
      <point x="227" y="188"/>
      <point x="328" y="238"/>
      <point x="384" y="285" type="curve"/>
      <point x="384" y="286" type="line"/>
      <point x="305" y="323"/>
      <point x="197" y="327"/>
      <point x="103" y="317" type="curve"/>
      <point x="65" y="441" type="line"/>
      <point x="138" y="450"/>
      <point x="281" y="424"/>
      <point x="384" y="375" type="curve"/>
      <point x="384" y="523" type="line"/>
      <point x="-11" y="523" type="line"/>
    </contour>
  </outline>
</glyph>
<glyph name="dvvR" format="1">
  <advance width="853"/>
  <outline>
    <contour>
      <point x="443" y="619" type="move" name="abvm.bindu"/>
    </contour>
    <contour>
      <point x="432" y="621" type="move" name="abvm.e"/>
    </contour>
    <contour>
      <point x="364" y="538" type="line"/>
      <point x="488" y="538" type="line"/>
      <point x="488" y="-55" type="line"/>
      <point x="364" y="1" type="line"/>
    </contour>
    <contour>
      <point x="-11" y="619" type="line"/>
      <point x="859" y="619" type="line"/>
      <point x="859" y="523" type="line"/>
      <point x="-11" y="523" type="line"/>
    </contour>
    <contour>
      <point x="813" y="210" type="line"/>
      <point x="537" y="110"/>
      <point x="660" y="-68"/>
      <point x="851" y="96" type="curve"/>
      <point x="944" y="40" type="line"/>
      <point x="858" y="-49"/>
      <point x="754" y="-62"/>
      <point x="717" y="-40" type="curve" smooth="yes"/>
      <point x="666" y="-10"/>
      <point x="611" y="44"/>
      <point x="591" y="73" type="curve" smooth="yes"/>
      <point x="565" y="111"/>
      <point x="540" y="199"/>
      <point x="737" y="291" type="curve"/>
    </contour>
    <contour>
      <point x="721" y="265" type="line"/>
      <point x="659" y="331" type="line"/>
      <point x="600" y="255"/>
      <point x="493" y="286"/>
      <point x="426" y="325" type="curve"/>
      <point x="428" y="359" type="line"/>
      <point x="466" y="346"/>
      <point x="536" y="331"/>
      <point x="589" y="383" type="curve"/>
      <point x="576" y="395"/>
      <point x="563" y="423"/>
      <point x="567" y="430" type="curve" smooth="yes"/>
      <point x="582" y="460"/>
      <point x="641" y="491"/>
      <point x="657" y="489" type="curve" smooth="yes"/>
      <point x="671" y="487"/>
      <point x="750" y="421"/>
      <point x="726" y="393" type="curve" smooth="yes"/>
      <point x="688" y="350" type="line"/>
      <point x="744" y="283" type="line"/>
    </contour>
    <contour>
      <point x="388" y="273" type="line"/>
      <point x="308" y="323"/>
      <point x="187" y="328"/>
      <point x="83" y="317" type="curve"/>
      <point x="45" y="441" type="line"/>
      <point x="129" y="452"/>
      <point x="304" y="416"/>
      <point x="406" y="352" type="curve"/>
    </contour>
    <contour>
      <point x="409" y="219" type="line"/>
      <point x="377" y="176"/>
      <point x="281" y="113"/>
      <point x="172" y="53" type="curve"/>
      <point x="95" y="142" type="line"/>
      <point x="208" y="189"/>
      <point x="310" y="239"/>
      <point x="365" y="286" type="curve"/>
    </contour>
  </outline>
</glyph>
<glyph name="turkishlira" format="1">
  <advance width="501"/>
  <outline>
    <contour>
      <point x="115" y="478" type="line"/>
      <point x="114" y="563" type="line"/>
      <point x="108" y="508"/>
      <point x="89" y="486"/>
      <point x="62" y="478" type="curve"/>
    </contour>
    <contour>
      <point x="227" y="558" type="line"/>
      <point x="114" y="586" type="line"/>
      <point x="114" y="122" type="line" smooth="yes"/>
      <point x="114" y="61"/>
      <point x="264" y="-53"/>
      <point x="328" y="-17" type="curve" smooth="yes"/>
      <point x="357" y="-1"/>
      <point x="454" y="82"/>
      <point x="481" y="134" type="curve"/>
      <point x="454" y="165" type="line"/>
      <point x="230" y="-29"/>
      <point x="227" y="151"/>
      <point x="227" y="281" type="curve" smooth="yes"/>
    </contour>
    <contour>
      <point x="62" y="408" type="line"/>
      <point x="389" y="408" type="line"/>
      <point x="359" y="478" type="line"/>
      <point x="32" y="478" type="line"/>
    </contour>
    <contour>
      <point x="62" y="275" type="line"/>
      <point x="389" y="275" type="line"/>
      <point x="359" y="345" type="line"/>
      <point x="32" y="345" type="line"/>
    </contour>
  </outline>
</glyph>
